<?xml version="1.0" encoding="utf-8" standalone="no"?>
<!DOCTYPE svg PUBLIC "-//W3C//DTD SVG 1.1//EN"
  "http://www.w3.org/Graphics/SVG/1.1/DTD/svg11.dtd">
<!-- Created with matplotlib (http://matplotlib.org/) -->
<svg height="720pt" version="1.1" viewBox="0 0 864 720" width="864pt" xmlns="http://www.w3.org/2000/svg" xmlns:xlink="http://www.w3.org/1999/xlink">
 <defs>
  <style type="text/css">
*{stroke-linecap:butt;stroke-linejoin:round;}
  </style>
 </defs>
 <g id="figure_1">
  <g id="patch_1">
   <path d="M 0 720 
L 864 720 
L 864 0 
L 0 0 
z
" style="fill:#ffffff;"/>
  </g>
  <g id="axes_1">
   <g id="patch_2">
    <path d="M 108 630 
L 777.6 630 
L 777.6 86.4 
L 108 86.4 
z
" style="fill:#eaeaf2;"/>
   </g>
   <g id="matplotlib.axis_1">
    <g id="xtick_1">
     <g id="line2d_1"/>
     <g id="text_1">
      <!-- 1a -->
      <defs>
       <path d="M 12.40625 8.296875 
L 28.515625 8.296875 
L 28.515625 63.921875 
L 10.984375 60.40625 
L 10.984375 69.390625 
L 28.421875 72.90625 
L 38.28125 72.90625 
L 38.28125 8.296875 
L 54.390625 8.296875 
L 54.390625 0 
L 12.40625 0 
z
" id="DejaVuSans-31"/>
       <path d="M 34.28125 27.484375 
Q 23.390625 27.484375 19.1875 25 
Q 14.984375 22.515625 14.984375 16.5 
Q 14.984375 11.71875 18.140625 8.90625 
Q 21.296875 6.109375 26.703125 6.109375 
Q 34.1875 6.109375 38.703125 11.40625 
Q 43.21875 16.703125 43.21875 25.484375 
L 43.21875 27.484375 
z
M 52.203125 31.203125 
L 52.203125 0 
L 43.21875 0 
L 43.21875 8.296875 
Q 40.140625 3.328125 35.546875 0.953125 
Q 30.953125 -1.421875 24.3125 -1.421875 
Q 15.921875 -1.421875 10.953125 3.296875 
Q 6 8.015625 6 15.921875 
Q 6 25.140625 12.171875 29.828125 
Q 18.359375 34.515625 30.609375 34.515625 
L 43.21875 34.515625 
L 43.21875 35.40625 
Q 43.21875 41.609375 39.140625 45 
Q 35.0625 48.390625 27.6875 48.390625 
Q 23 48.390625 18.546875 47.265625 
Q 14.109375 46.140625 10.015625 43.890625 
L 10.015625 52.203125 
Q 14.9375 54.109375 19.578125 55.046875 
Q 24.21875 56 28.609375 56 
Q 40.484375 56 46.34375 49.84375 
Q 52.203125 43.703125 52.203125 31.203125 
z
" id="DejaVuSans-61"/>
      </defs>
      <g style="fill:#262626;" transform="translate(156.305625 646.118125)scale(0.12 -0.12)">
       <use xlink:href="#DejaVuSans-31"/>
       <use x="63.623047" xlink:href="#DejaVuSans-61"/>
      </g>
     </g>
    </g>
    <g id="xtick_2">
     <g id="line2d_2"/>
     <g id="text_2">
      <!-- 1b -->
      <defs>
       <path d="M 48.6875 27.296875 
Q 48.6875 37.203125 44.609375 42.84375 
Q 40.53125 48.484375 33.40625 48.484375 
Q 26.265625 48.484375 22.1875 42.84375 
Q 18.109375 37.203125 18.109375 27.296875 
Q 18.109375 17.390625 22.1875 11.75 
Q 26.265625 6.109375 33.40625 6.109375 
Q 40.53125 6.109375 44.609375 11.75 
Q 48.6875 17.390625 48.6875 27.296875 
z
M 18.109375 46.390625 
Q 20.953125 51.265625 25.265625 53.625 
Q 29.59375 56 35.59375 56 
Q 45.5625 56 51.78125 48.09375 
Q 58.015625 40.1875 58.015625 27.296875 
Q 58.015625 14.40625 51.78125 6.484375 
Q 45.5625 -1.421875 35.59375 -1.421875 
Q 29.59375 -1.421875 25.265625 0.953125 
Q 20.953125 3.328125 18.109375 8.203125 
L 18.109375 0 
L 9.078125 0 
L 9.078125 75.984375 
L 18.109375 75.984375 
z
" id="DejaVuSans-62"/>
      </defs>
      <g style="fill:#262626;" transform="translate(267.773438 646.118125)scale(0.12 -0.12)">
       <use xlink:href="#DejaVuSans-31"/>
       <use x="63.623047" xlink:href="#DejaVuSans-62"/>
      </g>
     </g>
    </g>
    <g id="xtick_3">
     <g id="line2d_3"/>
     <g id="text_3">
      <!-- 1c -->
      <defs>
       <path d="M 48.78125 52.59375 
L 48.78125 44.1875 
Q 44.96875 46.296875 41.140625 47.34375 
Q 37.3125 48.390625 33.40625 48.390625 
Q 24.65625 48.390625 19.8125 42.84375 
Q 14.984375 37.3125 14.984375 27.296875 
Q 14.984375 17.28125 19.8125 11.734375 
Q 24.65625 6.203125 33.40625 6.203125 
Q 37.3125 6.203125 41.140625 7.25 
Q 44.96875 8.296875 48.78125 10.40625 
L 48.78125 2.09375 
Q 45.015625 0.34375 40.984375 -0.53125 
Q 36.96875 -1.421875 32.421875 -1.421875 
Q 20.0625 -1.421875 12.78125 6.34375 
Q 5.515625 14.109375 5.515625 27.296875 
Q 5.515625 40.671875 12.859375 48.328125 
Q 20.21875 56 33.015625 56 
Q 37.15625 56 41.109375 55.140625 
Q 45.0625 54.296875 48.78125 52.59375 
z
" id="DejaVuSans-63"/>
      </defs>
      <g style="fill:#262626;" transform="translate(379.883438 646.118125)scale(0.12 -0.12)">
       <use xlink:href="#DejaVuSans-31"/>
       <use x="63.623047" xlink:href="#DejaVuSans-63"/>
      </g>
     </g>
    </g>
    <g id="xtick_4">
     <g id="line2d_4"/>
     <g id="text_4">
      <!-- 1d -->
      <defs>
       <path d="M 45.40625 46.390625 
L 45.40625 75.984375 
L 54.390625 75.984375 
L 54.390625 0 
L 45.40625 0 
L 45.40625 8.203125 
Q 42.578125 3.328125 38.25 0.953125 
Q 33.9375 -1.421875 27.875 -1.421875 
Q 17.96875 -1.421875 11.734375 6.484375 
Q 5.515625 14.40625 5.515625 27.296875 
Q 5.515625 40.1875 11.734375 48.09375 
Q 17.96875 56 27.875 56 
Q 33.9375 56 38.25 53.625 
Q 42.578125 51.265625 45.40625 46.390625 
z
M 14.796875 27.296875 
Q 14.796875 17.390625 18.875 11.75 
Q 22.953125 6.109375 30.078125 6.109375 
Q 37.203125 6.109375 41.296875 11.75 
Q 45.40625 17.390625 45.40625 27.296875 
Q 45.40625 37.203125 41.296875 42.84375 
Q 37.203125 48.484375 30.078125 48.484375 
Q 22.953125 48.484375 18.875 42.84375 
Q 14.796875 37.203125 14.796875 27.296875 
z
" id="DejaVuSans-64"/>
      </defs>
      <g style="fill:#262626;" transform="translate(490.973437 646.118125)scale(0.12 -0.12)">
       <use xlink:href="#DejaVuSans-31"/>
       <use x="63.623047" xlink:href="#DejaVuSans-64"/>
      </g>
     </g>
    </g>
    <g id="xtick_5">
     <g id="line2d_5"/>
     <g id="text_5">
      <!-- 1e -->
      <defs>
       <path d="M 56.203125 29.59375 
L 56.203125 25.203125 
L 14.890625 25.203125 
Q 15.484375 15.921875 20.484375 11.0625 
Q 25.484375 6.203125 34.421875 6.203125 
Q 39.59375 6.203125 44.453125 7.46875 
Q 49.3125 8.734375 54.109375 11.28125 
L 54.109375 2.78125 
Q 49.265625 0.734375 44.1875 -0.34375 
Q 39.109375 -1.421875 33.890625 -1.421875 
Q 20.796875 -1.421875 13.15625 6.1875 
Q 5.515625 13.8125 5.515625 26.8125 
Q 5.515625 40.234375 12.765625 48.109375 
Q 20.015625 56 32.328125 56 
Q 43.359375 56 49.78125 48.890625 
Q 56.203125 41.796875 56.203125 29.59375 
z
M 47.21875 32.234375 
Q 47.125 39.59375 43.09375 43.984375 
Q 39.0625 48.390625 32.421875 48.390625 
Q 24.90625 48.390625 20.390625 44.140625 
Q 15.875 39.890625 15.1875 32.171875 
z
" id="DejaVuSans-65"/>
      </defs>
      <g style="fill:#262626;" transform="translate(602.690625 646.118125)scale(0.12 -0.12)">
       <use xlink:href="#DejaVuSans-31"/>
       <use x="63.623047" xlink:href="#DejaVuSans-65"/>
      </g>
     </g>
    </g>
    <g id="xtick_6">
     <g id="line2d_6"/>
     <g id="text_6">
      <!-- 1f -->
      <defs>
       <path d="M 37.109375 75.984375 
L 37.109375 68.5 
L 28.515625 68.5 
Q 23.6875 68.5 21.796875 66.546875 
Q 19.921875 64.59375 19.921875 59.515625 
L 19.921875 54.6875 
L 34.71875 54.6875 
L 34.71875 47.703125 
L 19.921875 47.703125 
L 19.921875 0 
L 10.890625 0 
L 10.890625 47.703125 
L 2.296875 47.703125 
L 2.296875 54.6875 
L 10.890625 54.6875 
L 10.890625 58.5 
Q 10.890625 67.625 15.140625 71.796875 
Q 19.390625 75.984375 28.609375 75.984375 
z
" id="DejaVuSans-66"/>
      </defs>
      <g style="fill:#262626;" transform="translate(715.870312 646.118125)scale(0.12 -0.12)">
       <use xlink:href="#DejaVuSans-31"/>
       <use x="63.623047" xlink:href="#DejaVuSans-66"/>
      </g>
     </g>
    </g>
    <g id="text_7">
     <!-- test name -->
     <defs>
      <path d="M 18.3125 70.21875 
L 18.3125 54.6875 
L 36.8125 54.6875 
L 36.8125 47.703125 
L 18.3125 47.703125 
L 18.3125 18.015625 
Q 18.3125 11.328125 20.140625 9.421875 
Q 21.96875 7.515625 27.59375 7.515625 
L 36.8125 7.515625 
L 36.8125 0 
L 27.59375 0 
Q 17.1875 0 13.234375 3.875 
Q 9.28125 7.765625 9.28125 18.015625 
L 9.28125 47.703125 
L 2.6875 47.703125 
L 2.6875 54.6875 
L 9.28125 54.6875 
L 9.28125 70.21875 
z
" id="DejaVuSans-74"/>
      <path d="M 44.28125 53.078125 
L 44.28125 44.578125 
Q 40.484375 46.53125 36.375 47.5 
Q 32.28125 48.484375 27.875 48.484375 
Q 21.1875 48.484375 17.84375 46.4375 
Q 14.5 44.390625 14.5 40.28125 
Q 14.5 37.15625 16.890625 35.375 
Q 19.28125 33.59375 26.515625 31.984375 
L 29.59375 31.296875 
Q 39.15625 29.25 43.1875 25.515625 
Q 47.21875 21.78125 47.21875 15.09375 
Q 47.21875 7.46875 41.1875 3.015625 
Q 35.15625 -1.421875 24.609375 -1.421875 
Q 20.21875 -1.421875 15.453125 -0.5625 
Q 10.6875 0.296875 5.421875 2 
L 5.421875 11.28125 
Q 10.40625 8.6875 15.234375 7.390625 
Q 20.0625 6.109375 24.8125 6.109375 
Q 31.15625 6.109375 34.5625 8.28125 
Q 37.984375 10.453125 37.984375 14.40625 
Q 37.984375 18.0625 35.515625 20.015625 
Q 33.0625 21.96875 24.703125 23.78125 
L 21.578125 24.515625 
Q 13.234375 26.265625 9.515625 29.90625 
Q 5.8125 33.546875 5.8125 39.890625 
Q 5.8125 47.609375 11.28125 51.796875 
Q 16.75 56 26.8125 56 
Q 31.78125 56 36.171875 55.265625 
Q 40.578125 54.546875 44.28125 53.078125 
z
" id="DejaVuSans-73"/>
      <path id="DejaVuSans-20"/>
      <path d="M 54.890625 33.015625 
L 54.890625 0 
L 45.90625 0 
L 45.90625 32.71875 
Q 45.90625 40.484375 42.875 44.328125 
Q 39.84375 48.1875 33.796875 48.1875 
Q 26.515625 48.1875 22.3125 43.546875 
Q 18.109375 38.921875 18.109375 30.90625 
L 18.109375 0 
L 9.078125 0 
L 9.078125 54.6875 
L 18.109375 54.6875 
L 18.109375 46.1875 
Q 21.34375 51.125 25.703125 53.5625 
Q 30.078125 56 35.796875 56 
Q 45.21875 56 50.046875 50.171875 
Q 54.890625 44.34375 54.890625 33.015625 
z
" id="DejaVuSans-6e"/>
      <path d="M 52 44.1875 
Q 55.375 50.25 60.0625 53.125 
Q 64.75 56 71.09375 56 
Q 79.640625 56 84.28125 50.015625 
Q 88.921875 44.046875 88.921875 33.015625 
L 88.921875 0 
L 79.890625 0 
L 79.890625 32.71875 
Q 79.890625 40.578125 77.09375 44.375 
Q 74.3125 48.1875 68.609375 48.1875 
Q 61.625 48.1875 57.5625 43.546875 
Q 53.515625 38.921875 53.515625 30.90625 
L 53.515625 0 
L 44.484375 0 
L 44.484375 32.71875 
Q 44.484375 40.625 41.703125 44.40625 
Q 38.921875 48.1875 33.109375 48.1875 
Q 26.21875 48.1875 22.15625 43.53125 
Q 18.109375 38.875 18.109375 30.90625 
L 18.109375 0 
L 9.078125 0 
L 9.078125 54.6875 
L 18.109375 54.6875 
L 18.109375 46.1875 
Q 21.1875 51.21875 25.484375 53.609375 
Q 29.78125 56 35.6875 56 
Q 41.65625 56 45.828125 52.96875 
Q 50 49.953125 52 44.1875 
z
" id="DejaVuSans-6d"/>
     </defs>
     <g style="fill:#262626;" transform="translate(409.311188 662.643687)scale(0.132 -0.132)">
      <use xlink:href="#DejaVuSans-74"/>
      <use x="39.208984" xlink:href="#DejaVuSans-65"/>
      <use x="100.732422" xlink:href="#DejaVuSans-73"/>
      <use x="152.832031" xlink:href="#DejaVuSans-74"/>
      <use x="192.041016" xlink:href="#DejaVuSans-20"/>
      <use x="223.828125" xlink:href="#DejaVuSans-6e"/>
      <use x="287.207031" xlink:href="#DejaVuSans-61"/>
      <use x="348.486328" xlink:href="#DejaVuSans-6d"/>
      <use x="445.898438" xlink:href="#DejaVuSans-65"/>
     </g>
    </g>
   </g>
   <g id="matplotlib.axis_2">
    <g id="ytick_1">
     <g id="line2d_7">
      <path clip-path="url(#p16ff1d9ea8)" d="M 108 630 
L 777.6 630 
" style="fill:none;stroke:#ffffff;stroke-linecap:round;"/>
     </g>
     <g id="line2d_8"/>
     <g id="text_8">
      <!-- 0 -->
      <defs>
       <path d="M 31.78125 66.40625 
Q 24.171875 66.40625 20.328125 58.90625 
Q 16.5 51.421875 16.5 36.375 
Q 16.5 21.390625 20.328125 13.890625 
Q 24.171875 6.390625 31.78125 6.390625 
Q 39.453125 6.390625 43.28125 13.890625 
Q 47.125 21.390625 47.125 36.375 
Q 47.125 51.421875 43.28125 58.90625 
Q 39.453125 66.40625 31.78125 66.40625 
z
M 31.78125 74.21875 
Q 44.046875 74.21875 50.515625 64.515625 
Q 56.984375 54.828125 56.984375 36.375 
Q 56.984375 17.96875 50.515625 8.265625 
Q 44.046875 -1.421875 31.78125 -1.421875 
Q 19.53125 -1.421875 13.0625 8.265625 
Q 6.59375 17.96875 6.59375 36.375 
Q 6.59375 54.828125 13.0625 64.515625 
Q 19.53125 74.21875 31.78125 74.21875 
z
" id="DejaVuSans-30"/>
      </defs>
      <g style="fill:#262626;" transform="translate(93.365 634.559062)scale(0.12 -0.12)">
       <use xlink:href="#DejaVuSans-30"/>
      </g>
     </g>
    </g>
    <g id="ytick_2">
     <g id="line2d_9">
      <path clip-path="url(#p16ff1d9ea8)" d="M 108 543.811965 
L 777.6 543.811965 
" style="fill:none;stroke:#ffffff;stroke-linecap:round;"/>
     </g>
     <g id="line2d_10"/>
     <g id="text_9">
      <!-- 5 -->
      <defs>
       <path d="M 10.796875 72.90625 
L 49.515625 72.90625 
L 49.515625 64.59375 
L 19.828125 64.59375 
L 19.828125 46.734375 
Q 21.96875 47.46875 24.109375 47.828125 
Q 26.265625 48.1875 28.421875 48.1875 
Q 40.625 48.1875 47.75 41.5 
Q 54.890625 34.8125 54.890625 23.390625 
Q 54.890625 11.625 47.5625 5.09375 
Q 40.234375 -1.421875 26.90625 -1.421875 
Q 22.3125 -1.421875 17.546875 -0.640625 
Q 12.796875 0.140625 7.71875 1.703125 
L 7.71875 11.625 
Q 12.109375 9.234375 16.796875 8.0625 
Q 21.484375 6.890625 26.703125 6.890625 
Q 35.15625 6.890625 40.078125 11.328125 
Q 45.015625 15.765625 45.015625 23.390625 
Q 45.015625 31 40.078125 35.4375 
Q 35.15625 39.890625 26.703125 39.890625 
Q 22.75 39.890625 18.8125 39.015625 
Q 14.890625 38.140625 10.796875 36.28125 
z
" id="DejaVuSans-35"/>
      </defs>
      <g style="fill:#262626;" transform="translate(93.365 548.371028)scale(0.12 -0.12)">
       <use xlink:href="#DejaVuSans-35"/>
      </g>
     </g>
    </g>
    <g id="ytick_3">
     <g id="line2d_11">
      <path clip-path="url(#p16ff1d9ea8)" d="M 108 457.623931 
L 777.6 457.623931 
" style="fill:none;stroke:#ffffff;stroke-linecap:round;"/>
     </g>
     <g id="line2d_12"/>
     <g id="text_10">
      <!-- 10 -->
      <g style="fill:#262626;" transform="translate(85.73 462.182993)scale(0.12 -0.12)">
       <use xlink:href="#DejaVuSans-31"/>
       <use x="63.623047" xlink:href="#DejaVuSans-30"/>
      </g>
     </g>
    </g>
    <g id="ytick_4">
     <g id="line2d_13">
      <path clip-path="url(#p16ff1d9ea8)" d="M 108 371.435896 
L 777.6 371.435896 
" style="fill:none;stroke:#ffffff;stroke-linecap:round;"/>
     </g>
     <g id="line2d_14"/>
     <g id="text_11">
      <!-- 15 -->
      <g style="fill:#262626;" transform="translate(85.73 375.994959)scale(0.12 -0.12)">
       <use xlink:href="#DejaVuSans-31"/>
       <use x="63.623047" xlink:href="#DejaVuSans-35"/>
      </g>
     </g>
    </g>
    <g id="ytick_5">
     <g id="line2d_15">
      <path clip-path="url(#p16ff1d9ea8)" d="M 108 285.247862 
L 777.6 285.247862 
" style="fill:none;stroke:#ffffff;stroke-linecap:round;"/>
     </g>
     <g id="line2d_16"/>
     <g id="text_12">
      <!-- 20 -->
      <defs>
       <path d="M 19.1875 8.296875 
L 53.609375 8.296875 
L 53.609375 0 
L 7.328125 0 
L 7.328125 8.296875 
Q 12.9375 14.109375 22.625 23.890625 
Q 32.328125 33.6875 34.8125 36.53125 
Q 39.546875 41.84375 41.421875 45.53125 
Q 43.3125 49.21875 43.3125 52.78125 
Q 43.3125 58.59375 39.234375 62.25 
Q 35.15625 65.921875 28.609375 65.921875 
Q 23.96875 65.921875 18.8125 64.3125 
Q 13.671875 62.703125 7.8125 59.421875 
L 7.8125 69.390625 
Q 13.765625 71.78125 18.9375 73 
Q 24.125 74.21875 28.421875 74.21875 
Q 39.75 74.21875 46.484375 68.546875 
Q 53.21875 62.890625 53.21875 53.421875 
Q 53.21875 48.921875 51.53125 44.890625 
Q 49.859375 40.875 45.40625 35.40625 
Q 44.1875 33.984375 37.640625 27.21875 
Q 31.109375 20.453125 19.1875 8.296875 
z
" id="DejaVuSans-32"/>
      </defs>
      <g style="fill:#262626;" transform="translate(85.73 289.806924)scale(0.12 -0.12)">
       <use xlink:href="#DejaVuSans-32"/>
       <use x="63.623047" xlink:href="#DejaVuSans-30"/>
      </g>
     </g>
    </g>
    <g id="ytick_6">
     <g id="line2d_17">
      <path clip-path="url(#p16ff1d9ea8)" d="M 108 199.059827 
L 777.6 199.059827 
" style="fill:none;stroke:#ffffff;stroke-linecap:round;"/>
     </g>
     <g id="line2d_18"/>
     <g id="text_13">
      <!-- 25 -->
      <g style="fill:#262626;" transform="translate(85.73 203.61889)scale(0.12 -0.12)">
       <use xlink:href="#DejaVuSans-32"/>
       <use x="63.623047" xlink:href="#DejaVuSans-35"/>
      </g>
     </g>
    </g>
    <g id="ytick_7">
     <g id="line2d_19">
      <path clip-path="url(#p16ff1d9ea8)" d="M 108 112.871793 
L 777.6 112.871793 
" style="fill:none;stroke:#ffffff;stroke-linecap:round;"/>
     </g>
     <g id="line2d_20"/>
     <g id="text_14">
      <!-- 30 -->
      <defs>
       <path d="M 40.578125 39.3125 
Q 47.65625 37.796875 51.625 33 
Q 55.609375 28.21875 55.609375 21.1875 
Q 55.609375 10.40625 48.1875 4.484375 
Q 40.765625 -1.421875 27.09375 -1.421875 
Q 22.515625 -1.421875 17.65625 -0.515625 
Q 12.796875 0.390625 7.625 2.203125 
L 7.625 11.71875 
Q 11.71875 9.328125 16.59375 8.109375 
Q 21.484375 6.890625 26.8125 6.890625 
Q 36.078125 6.890625 40.9375 10.546875 
Q 45.796875 14.203125 45.796875 21.1875 
Q 45.796875 27.640625 41.28125 31.265625 
Q 36.765625 34.90625 28.71875 34.90625 
L 20.21875 34.90625 
L 20.21875 43.015625 
L 29.109375 43.015625 
Q 36.375 43.015625 40.234375 45.921875 
Q 44.09375 48.828125 44.09375 54.296875 
Q 44.09375 59.90625 40.109375 62.90625 
Q 36.140625 65.921875 28.71875 65.921875 
Q 24.65625 65.921875 20.015625 65.03125 
Q 15.375 64.15625 9.8125 62.3125 
L 9.8125 71.09375 
Q 15.4375 72.65625 20.34375 73.4375 
Q 25.25 74.21875 29.59375 74.21875 
Q 40.828125 74.21875 47.359375 69.109375 
Q 53.90625 64.015625 53.90625 55.328125 
Q 53.90625 49.265625 50.4375 45.09375 
Q 46.96875 40.921875 40.578125 39.3125 
z
" id="DejaVuSans-33"/>
      </defs>
      <g style="fill:#262626;" transform="translate(85.73 117.430855)scale(0.12 -0.12)">
       <use xlink:href="#DejaVuSans-33"/>
       <use x="63.623047" xlink:href="#DejaVuSans-30"/>
      </g>
     </g>
    </g>
    <g id="text_15">
     <!-- speedup -->
     <defs>
      <path d="M 18.109375 8.203125 
L 18.109375 -20.796875 
L 9.078125 -20.796875 
L 9.078125 54.6875 
L 18.109375 54.6875 
L 18.109375 46.390625 
Q 20.953125 51.265625 25.265625 53.625 
Q 29.59375 56 35.59375 56 
Q 45.5625 56 51.78125 48.09375 
Q 58.015625 40.1875 58.015625 27.296875 
Q 58.015625 14.40625 51.78125 6.484375 
Q 45.5625 -1.421875 35.59375 -1.421875 
Q 29.59375 -1.421875 25.265625 0.953125 
Q 20.953125 3.328125 18.109375 8.203125 
z
M 48.6875 27.296875 
Q 48.6875 37.203125 44.609375 42.84375 
Q 40.53125 48.484375 33.40625 48.484375 
Q 26.265625 48.484375 22.1875 42.84375 
Q 18.109375 37.203125 18.109375 27.296875 
Q 18.109375 17.390625 22.1875 11.75 
Q 26.265625 6.109375 33.40625 6.109375 
Q 40.53125 6.109375 44.609375 11.75 
Q 48.6875 17.390625 48.6875 27.296875 
z
" id="DejaVuSans-70"/>
      <path d="M 8.5 21.578125 
L 8.5 54.6875 
L 17.484375 54.6875 
L 17.484375 21.921875 
Q 17.484375 14.15625 20.5 10.265625 
Q 23.53125 6.390625 29.59375 6.390625 
Q 36.859375 6.390625 41.078125 11.03125 
Q 45.3125 15.671875 45.3125 23.6875 
L 45.3125 54.6875 
L 54.296875 54.6875 
L 54.296875 0 
L 45.3125 0 
L 45.3125 8.40625 
Q 42.046875 3.421875 37.71875 1 
Q 33.40625 -1.421875 27.6875 -1.421875 
Q 18.265625 -1.421875 13.375 4.4375 
Q 8.5 10.296875 8.5 21.578125 
z
M 31.109375 56 
z
" id="DejaVuSans-75"/>
     </defs>
     <g style="fill:#262626;" transform="translate(78.984813 386.512969)rotate(-90)scale(0.132 -0.132)">
      <use xlink:href="#DejaVuSans-73"/>
      <use x="52.099609" xlink:href="#DejaVuSans-70"/>
      <use x="115.576172" xlink:href="#DejaVuSans-65"/>
      <use x="177.099609" xlink:href="#DejaVuSans-65"/>
      <use x="238.623047" xlink:href="#DejaVuSans-64"/>
      <use x="302.099609" xlink:href="#DejaVuSans-75"/>
      <use x="365.478516" xlink:href="#DejaVuSans-70"/>
     </g>
    </g>
   </g>
   <g id="patch_3">
    <path clip-path="url(#p16ff1d9ea8)" d="M 119.16 630 
L 127.276364 630 
L 127.276364 617.399309 
L 119.16 617.399309 
z
" style="fill:#4878cf;"/>
   </g>
   <g id="patch_4">
    <path clip-path="url(#p16ff1d9ea8)" d="M 230.76 630 
L 238.876364 630 
L 238.876364 613.313997 
L 230.76 613.313997 
z
" style="fill:#4878cf;"/>
   </g>
   <g id="patch_5">
    <path clip-path="url(#p16ff1d9ea8)" d="M 342.36 630 
L 350.476364 630 
L 350.476364 613.400185 
L 342.36 613.400185 
z
" style="fill:#4878cf;"/>
   </g>
   <g id="patch_6">
    <path clip-path="url(#p16ff1d9ea8)" d="M 453.96 630 
L 462.076364 630 
L 462.076364 611.969463 
L 453.96 611.969463 
z
" style="fill:#4878cf;"/>
   </g>
   <g id="patch_7">
    <path clip-path="url(#p16ff1d9ea8)" d="M 565.56 630 
L 573.676364 630 
L 573.676364 612.159077 
L 565.56 612.159077 
z
" style="fill:#4878cf;"/>
   </g>
   <g id="patch_8">
    <path clip-path="url(#p16ff1d9ea8)" d="M 677.16 630 
L 685.276364 630 
L 685.276364 611.866038 
L 677.16 611.866038 
z
" style="fill:#4878cf;"/>
   </g>
   <g id="patch_9">
    <path clip-path="url(#p16ff1d9ea8)" d="M 127.276364 630 
L 135.392727 630 
L 135.392727 613.451897 
L 127.276364 613.451897 
z
" style="fill:#6acc65;"/>
   </g>
   <g id="patch_10">
    <path clip-path="url(#p16ff1d9ea8)" d="M 238.876364 630 
L 246.992727 630 
L 246.992727 604.505579 
L 238.876364 604.505579 
z
" style="fill:#6acc65;"/>
   </g>
   <g id="patch_11">
    <path clip-path="url(#p16ff1d9ea8)" d="M 350.476364 630 
L 358.592727 630 
L 358.592727 594.335391 
L 350.476364 594.335391 
z
" style="fill:#6acc65;"/>
   </g>
   <g id="patch_12">
    <path clip-path="url(#p16ff1d9ea8)" d="M 462.076364 630 
L 470.192727 630 
L 470.192727 590.491405 
L 462.076364 590.491405 
z
" style="fill:#6acc65;"/>
   </g>
   <g id="patch_13">
    <path clip-path="url(#p16ff1d9ea8)" d="M 573.676364 630 
L 581.792727 630 
L 581.792727 591.698037 
L 573.676364 591.698037 
z
" style="fill:#6acc65;"/>
   </g>
   <g id="patch_14">
    <path clip-path="url(#p16ff1d9ea8)" d="M 685.276364 630 
L 693.392727 630 
L 693.392727 590.749969 
L 685.276364 590.749969 
z
" style="fill:#6acc65;"/>
   </g>
   <g id="patch_15">
    <path clip-path="url(#p16ff1d9ea8)" d="M 135.392727 630 
L 143.509091 630 
L 143.509091 611.900513 
L 135.392727 611.900513 
z
" style="fill:#d65f5f;"/>
   </g>
   <g id="patch_16">
    <path clip-path="url(#p16ff1d9ea8)" d="M 246.992727 630 
L 255.109091 630 
L 255.109091 597.920814 
L 246.992727 597.920814 
z
" style="fill:#d65f5f;"/>
   </g>
   <g id="patch_17">
    <path clip-path="url(#p16ff1d9ea8)" d="M 358.592727 630 
L 366.709091 630 
L 366.709091 565.272786 
L 358.592727 565.272786 
z
" style="fill:#d65f5f;"/>
   </g>
   <g id="patch_18">
    <path clip-path="url(#p16ff1d9ea8)" d="M 470.192727 630 
L 478.309091 630 
L 478.309091 552.499719 
L 470.192727 552.499719 
z
" style="fill:#d65f5f;"/>
   </g>
   <g id="patch_19">
    <path clip-path="url(#p16ff1d9ea8)" d="M 581.792727 630 
L 589.909091 630 
L 589.909091 545.777053 
L 581.792727 545.777053 
z
" style="fill:#d65f5f;"/>
   </g>
   <g id="patch_20">
    <path clip-path="url(#p16ff1d9ea8)" d="M 693.392727 630 
L 701.509091 630 
L 701.509091 545.087548 
L 693.392727 545.087548 
z
" style="fill:#d65f5f;"/>
   </g>
   <g id="patch_21">
    <path clip-path="url(#p16ff1d9ea8)" d="M 143.509091 630 
L 151.625455 630 
L 151.625455 613.107145 
L 143.509091 613.107145 
z
" style="fill:#b47cc7;"/>
   </g>
   <g id="patch_22">
    <path clip-path="url(#p16ff1d9ea8)" d="M 255.109091 630 
L 263.225455 630 
L 263.225455 595.214509 
L 255.109091 595.214509 
z
" style="fill:#b47cc7;"/>
   </g>
   <g id="patch_23">
    <path clip-path="url(#p16ff1d9ea8)" d="M 366.709091 630 
L 374.825455 630 
L 374.825455 546.190755 
L 366.709091 546.190755 
z
" style="fill:#b47cc7;"/>
   </g>
   <g id="patch_24">
    <path clip-path="url(#p16ff1d9ea8)" d="M 478.309091 630 
L 486.425455 630 
L 486.425455 530.607959 
L 478.309091 530.607959 
z
" style="fill:#b47cc7;"/>
   </g>
   <g id="patch_25">
    <path clip-path="url(#p16ff1d9ea8)" d="M 589.909091 630 
L 598.025455 630 
L 598.025455 521.075562 
L 589.909091 521.075562 
z
" style="fill:#b47cc7;"/>
   </g>
   <g id="patch_26">
    <path clip-path="url(#p16ff1d9ea8)" d="M 701.509091 630 
L 709.625455 630 
L 709.625455 504.096519 
L 701.509091 504.096519 
z
" style="fill:#b47cc7;"/>
   </g>
   <g id="patch_27">
    <path clip-path="url(#p16ff1d9ea8)" d="M 151.625455 630 
L 159.741818 630 
L 159.741818 618.243952 
L 151.625455 618.243952 
z
" style="fill:#c4ad66;"/>
   </g>
   <g id="patch_28">
    <path clip-path="url(#p16ff1d9ea8)" d="M 263.225455 630 
L 271.341818 630 
L 271.341818 595.421361 
L 263.225455 595.421361 
z
" style="fill:#c4ad66;"/>
   </g>
   <g id="patch_29">
    <path clip-path="url(#p16ff1d9ea8)" d="M 374.825455 630 
L 382.941818 630 
L 382.941818 514.766598 
L 374.825455 514.766598 
z
" style="fill:#c4ad66;"/>
   </g>
   <g id="patch_30">
    <path clip-path="url(#p16ff1d9ea8)" d="M 486.425455 630 
L 494.541818 630 
L 494.541818 489.461791 
L 486.425455 489.461791 
z
" style="fill:#c4ad66;"/>
   </g>
   <g id="patch_31">
    <path clip-path="url(#p16ff1d9ea8)" d="M 598.025455 630 
L 606.141818 630 
L 606.141818 482.153046 
L 598.025455 482.153046 
z
" style="fill:#c4ad66;"/>
   </g>
   <g id="patch_32">
    <path clip-path="url(#p16ff1d9ea8)" d="M 709.625455 630 
L 717.741818 630 
L 717.741818 468.311247 
L 709.625455 468.311247 
z
" style="fill:#c4ad66;"/>
   </g>
   <g id="patch_33">
    <path clip-path="url(#p16ff1d9ea8)" d="M 159.741818 630 
L 167.858182 630 
L 167.858182 612.555542 
L 159.741818 612.555542 
z
" style="fill:#77bedb;"/>
   </g>
   <g id="patch_34">
    <path clip-path="url(#p16ff1d9ea8)" d="M 271.341818 630 
L 279.458182 630 
L 279.458182 593.128759 
L 271.341818 593.128759 
z
" style="fill:#77bedb;"/>
   </g>
   <g id="patch_35">
    <path clip-path="url(#p16ff1d9ea8)" d="M 382.941818 630 
L 391.058182 630 
L 391.058182 471.448492 
L 382.941818 471.448492 
z
" style="fill:#77bedb;"/>
   </g>
   <g id="patch_36">
    <path clip-path="url(#p16ff1d9ea8)" d="M 494.541818 630 
L 502.658182 630 
L 502.658182 435.870071 
L 494.541818 435.870071 
z
" style="fill:#77bedb;"/>
   </g>
   <g id="patch_37">
    <path clip-path="url(#p16ff1d9ea8)" d="M 606.141818 630 
L 614.258182 630 
L 614.258182 397.757722 
L 606.141818 397.757722 
z
" style="fill:#77bedb;"/>
   </g>
   <g id="patch_38">
    <path clip-path="url(#p16ff1d9ea8)" d="M 717.741818 630 
L 725.858182 630 
L 725.858182 394.068874 
L 717.741818 394.068874 
z
" style="fill:#77bedb;"/>
   </g>
   <g id="patch_39">
    <path clip-path="url(#p16ff1d9ea8)" d="M 167.858182 630 
L 175.974545 630 
L 175.974545 612.331453 
L 167.858182 612.331453 
z
" style="fill:#4878cf;"/>
   </g>
   <g id="patch_40">
    <path clip-path="url(#p16ff1d9ea8)" d="M 279.458182 630 
L 287.574545 630 
L 287.574545 600.144465 
L 279.458182 600.144465 
z
" style="fill:#4878cf;"/>
   </g>
   <g id="patch_41">
    <path clip-path="url(#p16ff1d9ea8)" d="M 391.058182 630 
L 399.174545 630 
L 399.174545 471.224403 
L 391.058182 471.224403 
z
" style="fill:#4878cf;"/>
   </g>
   <g id="patch_42">
    <path clip-path="url(#p16ff1d9ea8)" d="M 502.658182 630 
L 510.774545 630 
L 510.774545 417.443069 
L 502.658182 417.443069 
z
" style="fill:#4878cf;"/>
   </g>
   <g id="patch_43">
    <path clip-path="url(#p16ff1d9ea8)" d="M 614.258182 630 
L 622.374545 630 
L 622.374545 357.180396 
L 614.258182 357.180396 
z
" style="fill:#4878cf;"/>
   </g>
   <g id="patch_44">
    <path clip-path="url(#p16ff1d9ea8)" d="M 725.858182 630 
L 733.974545 630 
L 733.974545 267.079424 
L 725.858182 267.079424 
z
" style="fill:#4878cf;"/>
   </g>
   <g id="patch_45">
    <path clip-path="url(#p16ff1d9ea8)" d="M 175.974545 630 
L 184.090909 630 
L 184.090909 614.29654 
L 175.974545 614.29654 
z
" style="fill:#6acc65;"/>
   </g>
   <g id="patch_46">
    <path clip-path="url(#p16ff1d9ea8)" d="M 287.574545 630 
L 295.690909 630 
L 295.690909 590.715494 
L 287.574545 590.715494 
z
" style="fill:#6acc65;"/>
   </g>
   <g id="patch_47">
    <path clip-path="url(#p16ff1d9ea8)" d="M 399.174545 630 
L 407.290909 630 
L 407.290909 451.521818 
L 399.174545 451.521818 
z
" style="fill:#6acc65;"/>
   </g>
   <g id="patch_48">
    <path clip-path="url(#p16ff1d9ea8)" d="M 510.774545 630 
L 518.890909 630 
L 518.890909 351.664361 
L 510.774545 351.664361 
z
" style="fill:#6acc65;"/>
   </g>
   <g id="patch_49">
    <path clip-path="url(#p16ff1d9ea8)" d="M 622.374545 630 
L 630.490909 630 
L 630.490909 286.471732 
L 622.374545 286.471732 
z
" style="fill:#6acc65;"/>
   </g>
   <g id="patch_50">
    <path clip-path="url(#p16ff1d9ea8)" d="M 733.974545 630 
L 742.090909 630 
L 742.090909 249.686679 
L 733.974545 249.686679 
z
" style="fill:#6acc65;"/>
   </g>
   <g id="patch_51">
    <path clip-path="url(#p16ff1d9ea8)" d="M 184.090909 630 
L 192.207273 630 
L 192.207273 614.968807 
L 184.090909 614.968807 
z
" style="fill:#d65f5f;"/>
   </g>
   <g id="patch_52">
    <path clip-path="url(#p16ff1d9ea8)" d="M 295.690909 630 
L 303.807273 630 
L 303.807273 590.353504 
L 295.690909 590.353504 
z
" style="fill:#d65f5f;"/>
   </g>
   <g id="patch_53">
    <path clip-path="url(#p16ff1d9ea8)" d="M 407.290909 630 
L 415.407273 630 
L 415.407273 450.522037 
L 407.290909 450.522037 
z
" style="fill:#d65f5f;"/>
   </g>
   <g id="patch_54">
    <path clip-path="url(#p16ff1d9ea8)" d="M 518.890909 630 
L 527.007273 630 
L 527.007273 373.883637 
L 518.890909 373.883637 
z
" style="fill:#d65f5f;"/>
   </g>
   <g id="patch_55">
    <path clip-path="url(#p16ff1d9ea8)" d="M 630.490909 630 
L 638.607273 630 
L 638.607273 253.634091 
L 630.490909 253.634091 
z
" style="fill:#d65f5f;"/>
   </g>
   <g id="patch_56">
    <path clip-path="url(#p16ff1d9ea8)" d="M 742.090909 630 
L 750.207273 630 
L 750.207273 201.024915 
L 742.090909 201.024915 
z
" style="fill:#d65f5f;"/>
   </g>
   <g id="patch_57">
    <path clip-path="url(#p16ff1d9ea8)" d="M 192.207273 630 
L 200.323636 630 
L 200.323636 615.08947 
L 192.207273 615.08947 
z
" style="fill:#b47cc7;"/>
   </g>
   <g id="patch_58">
    <path clip-path="url(#p16ff1d9ea8)" d="M 303.807273 630 
L 311.923636 630 
L 311.923636 607.280834 
L 303.807273 607.280834 
z
" style="fill:#b47cc7;"/>
   </g>
   <g id="patch_59">
    <path clip-path="url(#p16ff1d9ea8)" d="M 415.407273 630 
L 423.523636 630 
L 423.523636 473.896232 
L 415.407273 473.896232 
z
" style="fill:#b47cc7;"/>
   </g>
   <g id="patch_60">
    <path clip-path="url(#p16ff1d9ea8)" d="M 527.007273 630 
L 535.123636 630 
L 535.123636 385.260457 
L 527.007273 385.260457 
z
" style="fill:#b47cc7;"/>
   </g>
   <g id="patch_61">
    <path clip-path="url(#p16ff1d9ea8)" d="M 638.607273 630 
L 646.723636 630 
L 646.723636 193.561031 
L 638.607273 193.561031 
z
" style="fill:#b47cc7;"/>
   </g>
   <g id="patch_62">
    <path clip-path="url(#p16ff1d9ea8)" d="M 750.207273 630 
L 758.323636 630 
L 758.323636 112.285714 
L 750.207273 112.285714 
z
" style="fill:#b47cc7;"/>
   </g>
   <g id="patch_63">
    <path clip-path="url(#p16ff1d9ea8)" d="M 200.323636 630 
L 208.44 630 
L 208.44 611.745374 
L 200.323636 611.745374 
z
" style="fill:#c4ad66;"/>
   </g>
   <g id="patch_64">
    <path clip-path="url(#p16ff1d9ea8)" d="M 311.923636 630 
L 320.04 630 
L 320.04 606.815419 
L 311.923636 606.815419 
z
" style="fill:#c4ad66;"/>
   </g>
   <g id="patch_65">
    <path clip-path="url(#p16ff1d9ea8)" d="M 423.523636 630 
L 431.64 630 
L 431.64 447.264129 
L 423.523636 447.264129 
z
" style="fill:#c4ad66;"/>
   </g>
   <g id="patch_66">
    <path clip-path="url(#p16ff1d9ea8)" d="M 535.123636 630 
L 543.24 630 
L 543.24 386.863555 
L 535.123636 386.863555 
z
" style="fill:#c4ad66;"/>
   </g>
   <g id="patch_67">
    <path clip-path="url(#p16ff1d9ea8)" d="M 646.723636 630 
L 654.84 630 
L 654.84 261.804717 
L 646.723636 261.804717 
z
" style="fill:#c4ad66;"/>
   </g>
   <g id="patch_68">
    <path clip-path="url(#p16ff1d9ea8)" d="M 758.323636 630 
L 766.44 630 
L 766.44 169.393906 
L 758.323636 169.393906 
z
" style="fill:#c4ad66;"/>
   </g>
   <g id="line2d_21">
    <path clip-path="url(#p16ff1d9ea8)" d="M 0 0 
" style="fill:none;stroke:#424242;stroke-linecap:round;stroke-width:3.15;"/>
   </g>
   <g id="line2d_22">
    <path clip-path="url(#p16ff1d9ea8)" d="M 0 0 
" style="fill:none;stroke:#424242;stroke-linecap:round;stroke-width:3.15;"/>
   </g>
   <g id="line2d_23">
    <path clip-path="url(#p16ff1d9ea8)" d="M 0 0 
" style="fill:none;stroke:#424242;stroke-linecap:round;stroke-width:3.15;"/>
   </g>
   <g id="line2d_24">
    <path clip-path="url(#p16ff1d9ea8)" d="M 0 0 
" style="fill:none;stroke:#424242;stroke-linecap:round;stroke-width:3.15;"/>
   </g>
   <g id="line2d_25">
    <path clip-path="url(#p16ff1d9ea8)" d="M 0 0 
" style="fill:none;stroke:#424242;stroke-linecap:round;stroke-width:3.15;"/>
   </g>
   <g id="line2d_26">
    <path clip-path="url(#p16ff1d9ea8)" d="M 0 0 
" style="fill:none;stroke:#424242;stroke-linecap:round;stroke-width:3.15;"/>
   </g>
   <g id="line2d_27">
    <path clip-path="url(#p16ff1d9ea8)" d="M 0 0 
" style="fill:none;stroke:#424242;stroke-linecap:round;stroke-width:3.15;"/>
   </g>
   <g id="line2d_28">
    <path clip-path="url(#p16ff1d9ea8)" d="M 0 0 
" style="fill:none;stroke:#424242;stroke-linecap:round;stroke-width:3.15;"/>
   </g>
   <g id="line2d_29">
    <path clip-path="url(#p16ff1d9ea8)" d="M 0 0 
" style="fill:none;stroke:#424242;stroke-linecap:round;stroke-width:3.15;"/>
   </g>
   <g id="line2d_30">
    <path clip-path="url(#p16ff1d9ea8)" d="M 0 0 
" style="fill:none;stroke:#424242;stroke-linecap:round;stroke-width:3.15;"/>
   </g>
   <g id="line2d_31">
    <path clip-path="url(#p16ff1d9ea8)" d="M 0 0 
" style="fill:none;stroke:#424242;stroke-linecap:round;stroke-width:3.15;"/>
   </g>
   <g id="line2d_32">
    <path clip-path="url(#p16ff1d9ea8)" d="M 0 0 
" style="fill:none;stroke:#424242;stroke-linecap:round;stroke-width:3.15;"/>
   </g>
   <g id="line2d_33">
    <path clip-path="url(#p16ff1d9ea8)" d="M 0 0 
" style="fill:none;stroke:#424242;stroke-linecap:round;stroke-width:3.15;"/>
   </g>
   <g id="line2d_34">
    <path clip-path="url(#p16ff1d9ea8)" d="M 0 0 
" style="fill:none;stroke:#424242;stroke-linecap:round;stroke-width:3.15;"/>
   </g>
   <g id="line2d_35">
    <path clip-path="url(#p16ff1d9ea8)" d="M 0 0 
" style="fill:none;stroke:#424242;stroke-linecap:round;stroke-width:3.15;"/>
   </g>
   <g id="line2d_36">
    <path clip-path="url(#p16ff1d9ea8)" d="M 0 0 
" style="fill:none;stroke:#424242;stroke-linecap:round;stroke-width:3.15;"/>
   </g>
   <g id="line2d_37">
    <path clip-path="url(#p16ff1d9ea8)" d="M 0 0 
" style="fill:none;stroke:#424242;stroke-linecap:round;stroke-width:3.15;"/>
   </g>
   <g id="line2d_38">
    <path clip-path="url(#p16ff1d9ea8)" d="M 0 0 
" style="fill:none;stroke:#424242;stroke-linecap:round;stroke-width:3.15;"/>
   </g>
   <g id="line2d_39">
    <path clip-path="url(#p16ff1d9ea8)" d="M 0 0 
" style="fill:none;stroke:#424242;stroke-linecap:round;stroke-width:3.15;"/>
   </g>
   <g id="line2d_40">
    <path clip-path="url(#p16ff1d9ea8)" d="M 0 0 
" style="fill:none;stroke:#424242;stroke-linecap:round;stroke-width:3.15;"/>
   </g>
   <g id="line2d_41">
    <path clip-path="url(#p16ff1d9ea8)" d="M 0 0 
" style="fill:none;stroke:#424242;stroke-linecap:round;stroke-width:3.15;"/>
   </g>
   <g id="line2d_42">
    <path clip-path="url(#p16ff1d9ea8)" d="M 0 0 
" style="fill:none;stroke:#424242;stroke-linecap:round;stroke-width:3.15;"/>
   </g>
   <g id="line2d_43">
    <path clip-path="url(#p16ff1d9ea8)" d="M 0 0 
" style="fill:none;stroke:#424242;stroke-linecap:round;stroke-width:3.15;"/>
   </g>
   <g id="line2d_44">
    <path clip-path="url(#p16ff1d9ea8)" d="M 0 0 
" style="fill:none;stroke:#424242;stroke-linecap:round;stroke-width:3.15;"/>
   </g>
   <g id="line2d_45">
    <path clip-path="url(#p16ff1d9ea8)" d="M 0 0 
" style="fill:none;stroke:#424242;stroke-linecap:round;stroke-width:3.15;"/>
   </g>
   <g id="line2d_46">
    <path clip-path="url(#p16ff1d9ea8)" d="M 0 0 
" style="fill:none;stroke:#424242;stroke-linecap:round;stroke-width:3.15;"/>
   </g>
   <g id="line2d_47">
    <path clip-path="url(#p16ff1d9ea8)" d="M 0 0 
" style="fill:none;stroke:#424242;stroke-linecap:round;stroke-width:3.15;"/>
   </g>
   <g id="line2d_48">
    <path clip-path="url(#p16ff1d9ea8)" d="M 0 0 
" style="fill:none;stroke:#424242;stroke-linecap:round;stroke-width:3.15;"/>
   </g>
   <g id="line2d_49">
    <path clip-path="url(#p16ff1d9ea8)" d="M 0 0 
" style="fill:none;stroke:#424242;stroke-linecap:round;stroke-width:3.15;"/>
   </g>
   <g id="line2d_50">
    <path clip-path="url(#p16ff1d9ea8)" d="M 0 0 
" style="fill:none;stroke:#424242;stroke-linecap:round;stroke-width:3.15;"/>
   </g>
   <g id="line2d_51">
    <path clip-path="url(#p16ff1d9ea8)" d="M 0 0 
" style="fill:none;stroke:#424242;stroke-linecap:round;stroke-width:3.15;"/>
   </g>
   <g id="line2d_52">
    <path clip-path="url(#p16ff1d9ea8)" d="M 0 0 
" style="fill:none;stroke:#424242;stroke-linecap:round;stroke-width:3.15;"/>
   </g>
   <g id="line2d_53">
    <path clip-path="url(#p16ff1d9ea8)" d="M 0 0 
" style="fill:none;stroke:#424242;stroke-linecap:round;stroke-width:3.15;"/>
   </g>
   <g id="line2d_54">
    <path clip-path="url(#p16ff1d9ea8)" d="M 0 0 
" style="fill:none;stroke:#424242;stroke-linecap:round;stroke-width:3.15;"/>
   </g>
   <g id="line2d_55">
    <path clip-path="url(#p16ff1d9ea8)" d="M 0 0 
" style="fill:none;stroke:#424242;stroke-linecap:round;stroke-width:3.15;"/>
   </g>
   <g id="line2d_56">
    <path clip-path="url(#p16ff1d9ea8)" d="M 0 0 
" style="fill:none;stroke:#424242;stroke-linecap:round;stroke-width:3.15;"/>
   </g>
   <g id="line2d_57">
    <path clip-path="url(#p16ff1d9ea8)" d="M 0 0 
" style="fill:none;stroke:#424242;stroke-linecap:round;stroke-width:3.15;"/>
   </g>
   <g id="line2d_58">
    <path clip-path="url(#p16ff1d9ea8)" d="M 0 0 
" style="fill:none;stroke:#424242;stroke-linecap:round;stroke-width:3.15;"/>
   </g>
   <g id="line2d_59">
    <path clip-path="url(#p16ff1d9ea8)" d="M 0 0 
" style="fill:none;stroke:#424242;stroke-linecap:round;stroke-width:3.15;"/>
   </g>
   <g id="line2d_60">
    <path clip-path="url(#p16ff1d9ea8)" d="M 0 0 
" style="fill:none;stroke:#424242;stroke-linecap:round;stroke-width:3.15;"/>
   </g>
   <g id="line2d_61">
    <path clip-path="url(#p16ff1d9ea8)" d="M 0 0 
" style="fill:none;stroke:#424242;stroke-linecap:round;stroke-width:3.15;"/>
   </g>
   <g id="line2d_62">
    <path clip-path="url(#p16ff1d9ea8)" d="M 0 0 
" style="fill:none;stroke:#424242;stroke-linecap:round;stroke-width:3.15;"/>
   </g>
   <g id="line2d_63">
    <path clip-path="url(#p16ff1d9ea8)" d="M 0 0 
" style="fill:none;stroke:#424242;stroke-linecap:round;stroke-width:3.15;"/>
   </g>
   <g id="line2d_64">
    <path clip-path="url(#p16ff1d9ea8)" d="M 0 0 
" style="fill:none;stroke:#424242;stroke-linecap:round;stroke-width:3.15;"/>
   </g>
   <g id="line2d_65">
    <path clip-path="url(#p16ff1d9ea8)" d="M 0 0 
" style="fill:none;stroke:#424242;stroke-linecap:round;stroke-width:3.15;"/>
   </g>
   <g id="line2d_66">
    <path clip-path="url(#p16ff1d9ea8)" d="M 0 0 
" style="fill:none;stroke:#424242;stroke-linecap:round;stroke-width:3.15;"/>
   </g>
   <g id="line2d_67">
    <path clip-path="url(#p16ff1d9ea8)" d="M 0 0 
" style="fill:none;stroke:#424242;stroke-linecap:round;stroke-width:3.15;"/>
   </g>
   <g id="line2d_68">
    <path clip-path="url(#p16ff1d9ea8)" d="M 0 0 
" style="fill:none;stroke:#424242;stroke-linecap:round;stroke-width:3.15;"/>
   </g>
   <g id="line2d_69">
    <path clip-path="url(#p16ff1d9ea8)" d="M 0 0 
" style="fill:none;stroke:#424242;stroke-linecap:round;stroke-width:3.15;"/>
   </g>
   <g id="line2d_70">
    <path clip-path="url(#p16ff1d9ea8)" d="M 0 0 
" style="fill:none;stroke:#424242;stroke-linecap:round;stroke-width:3.15;"/>
   </g>
   <g id="line2d_71">
    <path clip-path="url(#p16ff1d9ea8)" d="M 0 0 
" style="fill:none;stroke:#424242;stroke-linecap:round;stroke-width:3.15;"/>
   </g>
   <g id="line2d_72">
    <path clip-path="url(#p16ff1d9ea8)" d="M 0 0 
" style="fill:none;stroke:#424242;stroke-linecap:round;stroke-width:3.15;"/>
   </g>
   <g id="line2d_73">
    <path clip-path="url(#p16ff1d9ea8)" d="M 0 0 
" style="fill:none;stroke:#424242;stroke-linecap:round;stroke-width:3.15;"/>
   </g>
   <g id="line2d_74">
    <path clip-path="url(#p16ff1d9ea8)" d="M 0 0 
" style="fill:none;stroke:#424242;stroke-linecap:round;stroke-width:3.15;"/>
   </g>
   <g id="line2d_75">
    <path clip-path="url(#p16ff1d9ea8)" d="M 0 0 
" style="fill:none;stroke:#424242;stroke-linecap:round;stroke-width:3.15;"/>
   </g>
   <g id="line2d_76">
    <path clip-path="url(#p16ff1d9ea8)" d="M 0 0 
" style="fill:none;stroke:#424242;stroke-linecap:round;stroke-width:3.15;"/>
   </g>
   <g id="line2d_77">
    <path clip-path="url(#p16ff1d9ea8)" d="M 0 0 
" style="fill:none;stroke:#424242;stroke-linecap:round;stroke-width:3.15;"/>
   </g>
   <g id="line2d_78">
    <path clip-path="url(#p16ff1d9ea8)" d="M 0 0 
" style="fill:none;stroke:#424242;stroke-linecap:round;stroke-width:3.15;"/>
   </g>
   <g id="line2d_79">
    <path clip-path="url(#p16ff1d9ea8)" d="M 0 0 
" style="fill:none;stroke:#424242;stroke-linecap:round;stroke-width:3.15;"/>
   </g>
   <g id="line2d_80">
    <path clip-path="url(#p16ff1d9ea8)" d="M 0 0 
" style="fill:none;stroke:#424242;stroke-linecap:round;stroke-width:3.15;"/>
   </g>
   <g id="line2d_81">
    <path clip-path="url(#p16ff1d9ea8)" d="M 0 0 
" style="fill:none;stroke:#424242;stroke-linecap:round;stroke-width:3.15;"/>
   </g>
   <g id="line2d_82">
    <path clip-path="url(#p16ff1d9ea8)" d="M 0 0 
" style="fill:none;stroke:#424242;stroke-linecap:round;stroke-width:3.15;"/>
   </g>
   <g id="line2d_83">
    <path clip-path="url(#p16ff1d9ea8)" d="M 0 0 
" style="fill:none;stroke:#424242;stroke-linecap:round;stroke-width:3.15;"/>
   </g>
   <g id="line2d_84">
    <path clip-path="url(#p16ff1d9ea8)" d="M 0 0 
" style="fill:none;stroke:#424242;stroke-linecap:round;stroke-width:3.15;"/>
   </g>
   <g id="line2d_85">
    <path clip-path="url(#p16ff1d9ea8)" d="M 0 0 
" style="fill:none;stroke:#424242;stroke-linecap:round;stroke-width:3.15;"/>
   </g>
   <g id="line2d_86">
    <path clip-path="url(#p16ff1d9ea8)" d="M 0 0 
" style="fill:none;stroke:#424242;stroke-linecap:round;stroke-width:3.15;"/>
   </g>
   <g id="line2d_87">
    <path clip-path="url(#p16ff1d9ea8)" d="M 108 612.762393 
L 777.6 612.762393 
" style="fill:none;stroke:#4c72b0;stroke-dasharray:6.475,2.8;stroke-dashoffset:0;stroke-width:1.75;"/>
   </g>
   <g id="patch_69">
    <path d="M 108 630 
L 108 86.4 
" style="fill:none;"/>
   </g>
   <g id="patch_70">
    <path d="M 777.6 630 
L 777.6 86.4 
" style="fill:none;"/>
   </g>
   <g id="patch_71">
    <path d="M 108 630 
L 777.6 630 
" style="fill:none;"/>
   </g>
   <g id="patch_72">
    <path d="M 108 86.4 
L 777.6 86.4 
" style="fill:none;"/>
   </g>
   <g id="text_16">
    <!-- Speed up 1 -->
    <defs>
     <path d="M 53.515625 70.515625 
L 53.515625 60.890625 
Q 47.90625 63.578125 42.921875 64.890625 
Q 37.9375 66.21875 33.296875 66.21875 
Q 25.25 66.21875 20.875 63.09375 
Q 16.5 59.96875 16.5 54.203125 
Q 16.5 49.359375 19.40625 46.890625 
Q 22.3125 44.4375 30.421875 42.921875 
L 36.375 41.703125 
Q 47.40625 39.59375 52.65625 34.296875 
Q 57.90625 29 57.90625 20.125 
Q 57.90625 9.515625 50.796875 4.046875 
Q 43.703125 -1.421875 29.984375 -1.421875 
Q 24.8125 -1.421875 18.96875 -0.25 
Q 13.140625 0.921875 6.890625 3.21875 
L 6.890625 13.375 
Q 12.890625 10.015625 18.65625 8.296875 
Q 24.421875 6.59375 29.984375 6.59375 
Q 38.421875 6.59375 43.015625 9.90625 
Q 47.609375 13.234375 47.609375 19.390625 
Q 47.609375 24.75 44.3125 27.78125 
Q 41.015625 30.8125 33.5 32.328125 
L 27.484375 33.5 
Q 16.453125 35.6875 11.515625 40.375 
Q 6.59375 45.0625 6.59375 53.421875 
Q 6.59375 63.09375 13.40625 68.65625 
Q 20.21875 74.21875 32.171875 74.21875 
Q 37.3125 74.21875 42.625 73.28125 
Q 47.953125 72.359375 53.515625 70.515625 
z
" id="DejaVuSans-53"/>
    </defs>
    <g style="fill:#262626;" transform="translate(163.8 604.14359)scale(0.144 -0.144)">
     <use xlink:href="#DejaVuSans-53"/>
     <use x="63.476562" xlink:href="#DejaVuSans-70"/>
     <use x="126.953125" xlink:href="#DejaVuSans-65"/>
     <use x="188.476562" xlink:href="#DejaVuSans-65"/>
     <use x="250" xlink:href="#DejaVuSans-64"/>
     <use x="313.476562" xlink:href="#DejaVuSans-20"/>
     <use x="345.263672" xlink:href="#DejaVuSans-75"/>
     <use x="408.642578" xlink:href="#DejaVuSans-70"/>
     <use x="472.119141" xlink:href="#DejaVuSans-20"/>
     <use x="503.90625" xlink:href="#DejaVuSans-31"/>
    </g>
   </g>
   <g id="legend_1">
    <g id="text_17">
     <!-- core -->
     <defs>
      <path d="M 30.609375 48.390625 
Q 23.390625 48.390625 19.1875 42.75 
Q 14.984375 37.109375 14.984375 27.296875 
Q 14.984375 17.484375 19.15625 11.84375 
Q 23.34375 6.203125 30.609375 6.203125 
Q 37.796875 6.203125 41.984375 11.859375 
Q 46.1875 17.53125 46.1875 27.296875 
Q 46.1875 37.015625 41.984375 42.703125 
Q 37.796875 48.390625 30.609375 48.390625 
z
M 30.609375 56 
Q 42.328125 56 49.015625 48.375 
Q 55.71875 40.765625 55.71875 27.296875 
Q 55.71875 13.875 49.015625 6.21875 
Q 42.328125 -1.421875 30.609375 -1.421875 
Q 18.84375 -1.421875 12.171875 6.21875 
Q 5.515625 13.875 5.515625 27.296875 
Q 5.515625 40.765625 12.171875 48.375 
Q 18.84375 56 30.609375 56 
z
" id="DejaVuSans-6f"/>
      <path d="M 41.109375 46.296875 
Q 39.59375 47.171875 37.8125 47.578125 
Q 36.03125 48 33.890625 48 
Q 26.265625 48 22.1875 43.046875 
Q 18.109375 38.09375 18.109375 28.8125 
L 18.109375 0 
L 9.078125 0 
L 9.078125 54.6875 
L 18.109375 54.6875 
L 18.109375 46.1875 
Q 20.953125 51.171875 25.484375 53.578125 
Q 30.03125 56 36.53125 56 
Q 37.453125 56 38.578125 55.875 
Q 39.703125 55.765625 41.0625 55.515625 
z
" id="DejaVuSans-72"/>
     </defs>
     <g style="fill:#262626;" transform="translate(130.961372 105.725447)scale(0.1122 -0.1122)">
      <use xlink:href="#DejaVuSans-63"/>
      <use x="54.980469" xlink:href="#DejaVuSans-6f"/>
      <use x="116.162109" xlink:href="#DejaVuSans-72"/>
      <use x="157.244141" xlink:href="#DejaVuSans-65"/>
     </g>
    </g>
    <g id="patch_73">
     <path d="M 118.8 123.176981 
L 142.8 123.176981 
L 142.8 114.776981 
L 118.8 114.776981 
z
" style="fill:#4878cf;"/>
    </g>
    <g id="text_18">
     <!-- 2 -->
     <g style="fill:#262626;" transform="translate(152.4 123.176981)scale(0.12 -0.12)">
      <use xlink:href="#DejaVuSans-32"/>
     </g>
    </g>
    <g id="patch_74">
     <path d="M 118.8 140.790731 
L 142.8 140.790731 
L 142.8 132.390731 
L 118.8 132.390731 
z
" style="fill:#6acc65;"/>
    </g>
    <g id="text_19">
     <!-- 4 -->
     <defs>
      <path d="M 37.796875 64.3125 
L 12.890625 25.390625 
L 37.796875 25.390625 
z
M 35.203125 72.90625 
L 47.609375 72.90625 
L 47.609375 25.390625 
L 58.015625 25.390625 
L 58.015625 17.1875 
L 47.609375 17.1875 
L 47.609375 0 
L 37.796875 0 
L 37.796875 17.1875 
L 4.890625 17.1875 
L 4.890625 26.703125 
z
" id="DejaVuSans-34"/>
     </defs>
     <g style="fill:#262626;" transform="translate(152.4 140.790731)scale(0.12 -0.12)">
      <use xlink:href="#DejaVuSans-34"/>
     </g>
    </g>
    <g id="patch_75">
     <path d="M 118.8 158.404481 
L 142.8 158.404481 
L 142.8 150.004481 
L 118.8 150.004481 
z
" style="fill:#d65f5f;"/>
    </g>
    <g id="text_20">
     <!-- 8 -->
     <defs>
      <path d="M 31.78125 34.625 
Q 24.75 34.625 20.71875 30.859375 
Q 16.703125 27.09375 16.703125 20.515625 
Q 16.703125 13.921875 20.71875 10.15625 
Q 24.75 6.390625 31.78125 6.390625 
Q 38.8125 6.390625 42.859375 10.171875 
Q 46.921875 13.96875 46.921875 20.515625 
Q 46.921875 27.09375 42.890625 30.859375 
Q 38.875 34.625 31.78125 34.625 
z
M 21.921875 38.8125 
Q 15.578125 40.375 12.03125 44.71875 
Q 8.5 49.078125 8.5 55.328125 
Q 8.5 64.0625 14.71875 69.140625 
Q 20.953125 74.21875 31.78125 74.21875 
Q 42.671875 74.21875 48.875 69.140625 
Q 55.078125 64.0625 55.078125 55.328125 
Q 55.078125 49.078125 51.53125 44.71875 
Q 48 40.375 41.703125 38.8125 
Q 48.828125 37.15625 52.796875 32.3125 
Q 56.78125 27.484375 56.78125 20.515625 
Q 56.78125 9.90625 50.3125 4.234375 
Q 43.84375 -1.421875 31.78125 -1.421875 
Q 19.734375 -1.421875 13.25 4.234375 
Q 6.78125 9.90625 6.78125 20.515625 
Q 6.78125 27.484375 10.78125 32.3125 
Q 14.796875 37.15625 21.921875 38.8125 
z
M 18.3125 54.390625 
Q 18.3125 48.734375 21.84375 45.5625 
Q 25.390625 42.390625 31.78125 42.390625 
Q 38.140625 42.390625 41.71875 45.5625 
Q 45.3125 48.734375 45.3125 54.390625 
Q 45.3125 60.0625 41.71875 63.234375 
Q 38.140625 66.40625 31.78125 66.40625 
Q 25.390625 66.40625 21.84375 63.234375 
Q 18.3125 60.0625 18.3125 54.390625 
z
" id="DejaVuSans-38"/>
     </defs>
     <g style="fill:#262626;" transform="translate(152.4 158.404481)scale(0.12 -0.12)">
      <use xlink:href="#DejaVuSans-38"/>
     </g>
    </g>
    <g id="patch_76">
     <path d="M 118.8 176.018231 
L 142.8 176.018231 
L 142.8 167.618231 
L 118.8 167.618231 
z
" style="fill:#b47cc7;"/>
    </g>
    <g id="text_21">
     <!-- 12 -->
     <g style="fill:#262626;" transform="translate(152.4 176.018231)scale(0.12 -0.12)">
      <use xlink:href="#DejaVuSans-31"/>
      <use x="63.623047" xlink:href="#DejaVuSans-32"/>
     </g>
    </g>
    <g id="patch_77">
     <path d="M 118.8 193.631981 
L 142.8 193.631981 
L 142.8 185.231981 
L 118.8 185.231981 
z
" style="fill:#c4ad66;"/>
    </g>
    <g id="text_22">
     <!-- 16 -->
     <defs>
      <path d="M 33.015625 40.375 
Q 26.375 40.375 22.484375 35.828125 
Q 18.609375 31.296875 18.609375 23.390625 
Q 18.609375 15.53125 22.484375 10.953125 
Q 26.375 6.390625 33.015625 6.390625 
Q 39.65625 6.390625 43.53125 10.953125 
Q 47.40625 15.53125 47.40625 23.390625 
Q 47.40625 31.296875 43.53125 35.828125 
Q 39.65625 40.375 33.015625 40.375 
z
M 52.59375 71.296875 
L 52.59375 62.3125 
Q 48.875 64.0625 45.09375 64.984375 
Q 41.3125 65.921875 37.59375 65.921875 
Q 27.828125 65.921875 22.671875 59.328125 
Q 17.53125 52.734375 16.796875 39.40625 
Q 19.671875 43.65625 24.015625 45.921875 
Q 28.375 48.1875 33.59375 48.1875 
Q 44.578125 48.1875 50.953125 41.515625 
Q 57.328125 34.859375 57.328125 23.390625 
Q 57.328125 12.15625 50.6875 5.359375 
Q 44.046875 -1.421875 33.015625 -1.421875 
Q 20.359375 -1.421875 13.671875 8.265625 
Q 6.984375 17.96875 6.984375 36.375 
Q 6.984375 53.65625 15.1875 63.9375 
Q 23.390625 74.21875 37.203125 74.21875 
Q 40.921875 74.21875 44.703125 73.484375 
Q 48.484375 72.75 52.59375 71.296875 
z
" id="DejaVuSans-36"/>
     </defs>
     <g style="fill:#262626;" transform="translate(152.4 193.631981)scale(0.12 -0.12)">
      <use xlink:href="#DejaVuSans-31"/>
      <use x="63.623047" xlink:href="#DejaVuSans-36"/>
     </g>
    </g>
    <g id="patch_78">
     <path d="M 118.8 211.245731 
L 142.8 211.245731 
L 142.8 202.845731 
L 118.8 202.845731 
z
" style="fill:#77bedb;"/>
    </g>
    <g id="text_23">
     <!-- 24 -->
     <g style="fill:#262626;" transform="translate(152.4 211.245731)scale(0.12 -0.12)">
      <use xlink:href="#DejaVuSans-32"/>
      <use x="63.623047" xlink:href="#DejaVuSans-34"/>
     </g>
    </g>
    <g id="patch_79">
     <path d="M 118.8 228.859481 
L 142.8 228.859481 
L 142.8 220.459481 
L 118.8 220.459481 
z
" style="fill:#4878cf;"/>
    </g>
    <g id="text_24">
     <!-- 32 -->
     <g style="fill:#262626;" transform="translate(152.4 228.859481)scale(0.12 -0.12)">
      <use xlink:href="#DejaVuSans-33"/>
      <use x="63.623047" xlink:href="#DejaVuSans-32"/>
     </g>
    </g>
    <g id="patch_80">
     <path d="M 118.8 246.473231 
L 142.8 246.473231 
L 142.8 238.073231 
L 118.8 238.073231 
z
" style="fill:#6acc65;"/>
    </g>
    <g id="text_25">
     <!-- 40 -->
     <g style="fill:#262626;" transform="translate(152.4 246.473231)scale(0.12 -0.12)">
      <use xlink:href="#DejaVuSans-34"/>
      <use x="63.623047" xlink:href="#DejaVuSans-30"/>
     </g>
    </g>
    <g id="patch_81">
     <path d="M 118.8 264.086981 
L 142.8 264.086981 
L 142.8 255.686981 
L 118.8 255.686981 
z
" style="fill:#d65f5f;"/>
    </g>
    <g id="text_26">
     <!-- 48 -->
     <g style="fill:#262626;" transform="translate(152.4 264.086981)scale(0.12 -0.12)">
      <use xlink:href="#DejaVuSans-34"/>
      <use x="63.623047" xlink:href="#DejaVuSans-38"/>
     </g>
    </g>
    <g id="patch_82">
     <path d="M 118.8 281.700731 
L 142.8 281.700731 
L 142.8 273.300731 
L 118.8 273.300731 
z
" style="fill:#b47cc7;"/>
    </g>
    <g id="text_27">
     <!-- 56 -->
     <g style="fill:#262626;" transform="translate(152.4 281.700731)scale(0.12 -0.12)">
      <use xlink:href="#DejaVuSans-35"/>
      <use x="63.623047" xlink:href="#DejaVuSans-36"/>
     </g>
    </g>
    <g id="patch_83">
     <path d="M 118.8 299.314481 
L 142.8 299.314481 
L 142.8 290.914481 
L 118.8 290.914481 
z
" style="fill:#c4ad66;"/>
    </g>
    <g id="text_28">
     <!-- 64 -->
     <g style="fill:#262626;" transform="translate(152.4 299.314481)scale(0.12 -0.12)">
      <use xlink:href="#DejaVuSans-36"/>
      <use x="63.623047" xlink:href="#DejaVuSans-34"/>
     </g>
    </g>
   </g>
  </g>
 </g>
 <defs>
  <clipPath id="p16ff1d9ea8">
   <rect height="543.6" width="669.6" x="108" y="86.4"/>
  </clipPath>
 </defs>
</svg>
