<?xml version="1.0" encoding="utf-8" standalone="no"?>
<!DOCTYPE svg PUBLIC "-//W3C//DTD SVG 1.1//EN"
  "http://www.w3.org/Graphics/SVG/1.1/DTD/svg11.dtd">
<!-- Created with matplotlib (http://matplotlib.org/) -->
<svg height="720pt" version="1.1" viewBox="0 0 864 720" width="864pt" xmlns="http://www.w3.org/2000/svg" xmlns:xlink="http://www.w3.org/1999/xlink">
 <defs>
  <style type="text/css">
*{stroke-linecap:butt;stroke-linejoin:round;}
  </style>
 </defs>
 <g id="figure_1">
  <g id="patch_1">
   <path d="M 0 720 
L 864 720 
L 864 0 
L 0 0 
z
" style="fill:#ffffff;"/>
  </g>
  <g id="axes_1">
   <g id="patch_2">
    <path d="M 108 630 
L 777.6 630 
L 777.6 86.4 
L 108 86.4 
z
" style="fill:#eaeaf2;"/>
   </g>
   <g id="matplotlib.axis_1">
    <g id="xtick_1">
     <g id="line2d_1"/>
     <g id="text_1">
      <!-- 1a -->
      <defs>
       <path d="M 12.40625 8.296875 
L 28.515625 8.296875 
L 28.515625 63.921875 
L 10.984375 60.40625 
L 10.984375 69.390625 
L 28.421875 72.90625 
L 38.28125 72.90625 
L 38.28125 8.296875 
L 54.390625 8.296875 
L 54.390625 0 
L 12.40625 0 
z
" id="DejaVuSans-31"/>
       <path d="M 34.28125 27.484375 
Q 23.390625 27.484375 19.1875 25 
Q 14.984375 22.515625 14.984375 16.5 
Q 14.984375 11.71875 18.140625 8.90625 
Q 21.296875 6.109375 26.703125 6.109375 
Q 34.1875 6.109375 38.703125 11.40625 
Q 43.21875 16.703125 43.21875 25.484375 
L 43.21875 27.484375 
z
M 52.203125 31.203125 
L 52.203125 0 
L 43.21875 0 
L 43.21875 8.296875 
Q 40.140625 3.328125 35.546875 0.953125 
Q 30.953125 -1.421875 24.3125 -1.421875 
Q 15.921875 -1.421875 10.953125 3.296875 
Q 6 8.015625 6 15.921875 
Q 6 25.140625 12.171875 29.828125 
Q 18.359375 34.515625 30.609375 34.515625 
L 43.21875 34.515625 
L 43.21875 35.40625 
Q 43.21875 41.609375 39.140625 45 
Q 35.0625 48.390625 27.6875 48.390625 
Q 23 48.390625 18.546875 47.265625 
Q 14.109375 46.140625 10.015625 43.890625 
L 10.015625 52.203125 
Q 14.9375 54.109375 19.578125 55.046875 
Q 24.21875 56 28.609375 56 
Q 40.484375 56 46.34375 49.84375 
Q 52.203125 43.703125 52.203125 31.203125 
z
" id="DejaVuSans-61"/>
      </defs>
      <g style="fill:#262626;" transform="translate(128.405625 646.118125)scale(0.12 -0.12)">
       <use xlink:href="#DejaVuSans-31"/>
       <use x="63.623047" xlink:href="#DejaVuSans-61"/>
      </g>
     </g>
    </g>
    <g id="xtick_2">
     <g id="line2d_2"/>
     <g id="text_2">
      <!-- 1b -->
      <defs>
       <path d="M 48.6875 27.296875 
Q 48.6875 37.203125 44.609375 42.84375 
Q 40.53125 48.484375 33.40625 48.484375 
Q 26.265625 48.484375 22.1875 42.84375 
Q 18.109375 37.203125 18.109375 27.296875 
Q 18.109375 17.390625 22.1875 11.75 
Q 26.265625 6.109375 33.40625 6.109375 
Q 40.53125 6.109375 44.609375 11.75 
Q 48.6875 17.390625 48.6875 27.296875 
z
M 18.109375 46.390625 
Q 20.953125 51.265625 25.265625 53.625 
Q 29.59375 56 35.59375 56 
Q 45.5625 56 51.78125 48.09375 
Q 58.015625 40.1875 58.015625 27.296875 
Q 58.015625 14.40625 51.78125 6.484375 
Q 45.5625 -1.421875 35.59375 -1.421875 
Q 29.59375 -1.421875 25.265625 0.953125 
Q 20.953125 3.328125 18.109375 8.203125 
L 18.109375 0 
L 9.078125 0 
L 9.078125 75.984375 
L 18.109375 75.984375 
z
" id="DejaVuSans-62"/>
      </defs>
      <g style="fill:#262626;" transform="translate(184.073437 646.118125)scale(0.12 -0.12)">
       <use xlink:href="#DejaVuSans-31"/>
       <use x="63.623047" xlink:href="#DejaVuSans-62"/>
      </g>
     </g>
    </g>
    <g id="xtick_3">
     <g id="line2d_3"/>
     <g id="text_3">
      <!-- 1c -->
      <defs>
       <path d="M 48.78125 52.59375 
L 48.78125 44.1875 
Q 44.96875 46.296875 41.140625 47.34375 
Q 37.3125 48.390625 33.40625 48.390625 
Q 24.65625 48.390625 19.8125 42.84375 
Q 14.984375 37.3125 14.984375 27.296875 
Q 14.984375 17.28125 19.8125 11.734375 
Q 24.65625 6.203125 33.40625 6.203125 
Q 37.3125 6.203125 41.140625 7.25 
Q 44.96875 8.296875 48.78125 10.40625 
L 48.78125 2.09375 
Q 45.015625 0.34375 40.984375 -0.53125 
Q 36.96875 -1.421875 32.421875 -1.421875 
Q 20.0625 -1.421875 12.78125 6.34375 
Q 5.515625 14.109375 5.515625 27.296875 
Q 5.515625 40.671875 12.859375 48.328125 
Q 20.21875 56 33.015625 56 
Q 37.15625 56 41.109375 55.140625 
Q 45.0625 54.296875 48.78125 52.59375 
z
" id="DejaVuSans-63"/>
      </defs>
      <g style="fill:#262626;" transform="translate(240.383438 646.118125)scale(0.12 -0.12)">
       <use xlink:href="#DejaVuSans-31"/>
       <use x="63.623047" xlink:href="#DejaVuSans-63"/>
      </g>
     </g>
    </g>
    <g id="xtick_4">
     <g id="line2d_4"/>
     <g id="text_4">
      <!-- 1d -->
      <defs>
       <path d="M 45.40625 46.390625 
L 45.40625 75.984375 
L 54.390625 75.984375 
L 54.390625 0 
L 45.40625 0 
L 45.40625 8.203125 
Q 42.578125 3.328125 38.25 0.953125 
Q 33.9375 -1.421875 27.875 -1.421875 
Q 17.96875 -1.421875 11.734375 6.484375 
Q 5.515625 14.40625 5.515625 27.296875 
Q 5.515625 40.1875 11.734375 48.09375 
Q 17.96875 56 27.875 56 
Q 33.9375 56 38.25 53.625 
Q 42.578125 51.265625 45.40625 46.390625 
z
M 14.796875 27.296875 
Q 14.796875 17.390625 18.875 11.75 
Q 22.953125 6.109375 30.078125 6.109375 
Q 37.203125 6.109375 41.296875 11.75 
Q 45.40625 17.390625 45.40625 27.296875 
Q 45.40625 37.203125 41.296875 42.84375 
Q 37.203125 48.484375 30.078125 48.484375 
Q 22.953125 48.484375 18.875 42.84375 
Q 14.796875 37.203125 14.796875 27.296875 
z
" id="DejaVuSans-64"/>
      </defs>
      <g style="fill:#262626;" transform="translate(295.673437 646.118125)scale(0.12 -0.12)">
       <use xlink:href="#DejaVuSans-31"/>
       <use x="63.623047" xlink:href="#DejaVuSans-64"/>
      </g>
     </g>
    </g>
    <g id="xtick_5">
     <g id="line2d_5"/>
     <g id="text_5">
      <!-- 1e -->
      <defs>
       <path d="M 56.203125 29.59375 
L 56.203125 25.203125 
L 14.890625 25.203125 
Q 15.484375 15.921875 20.484375 11.0625 
Q 25.484375 6.203125 34.421875 6.203125 
Q 39.59375 6.203125 44.453125 7.46875 
Q 49.3125 8.734375 54.109375 11.28125 
L 54.109375 2.78125 
Q 49.265625 0.734375 44.1875 -0.34375 
Q 39.109375 -1.421875 33.890625 -1.421875 
Q 20.796875 -1.421875 13.15625 6.1875 
Q 5.515625 13.8125 5.515625 26.8125 
Q 5.515625 40.234375 12.765625 48.109375 
Q 20.015625 56 32.328125 56 
Q 43.359375 56 49.78125 48.890625 
Q 56.203125 41.796875 56.203125 29.59375 
z
M 47.21875 32.234375 
Q 47.125 39.59375 43.09375 43.984375 
Q 39.0625 48.390625 32.421875 48.390625 
Q 24.90625 48.390625 20.390625 44.140625 
Q 15.875 39.890625 15.1875 32.171875 
z
" id="DejaVuSans-65"/>
      </defs>
      <g style="fill:#262626;" transform="translate(351.590625 646.118125)scale(0.12 -0.12)">
       <use xlink:href="#DejaVuSans-31"/>
       <use x="63.623047" xlink:href="#DejaVuSans-65"/>
      </g>
     </g>
    </g>
    <g id="xtick_6">
     <g id="line2d_6"/>
     <g id="text_6">
      <!-- 1f -->
      <defs>
       <path d="M 37.109375 75.984375 
L 37.109375 68.5 
L 28.515625 68.5 
Q 23.6875 68.5 21.796875 66.546875 
Q 19.921875 64.59375 19.921875 59.515625 
L 19.921875 54.6875 
L 34.71875 54.6875 
L 34.71875 47.703125 
L 19.921875 47.703125 
L 19.921875 0 
L 10.890625 0 
L 10.890625 47.703125 
L 2.296875 47.703125 
L 2.296875 54.6875 
L 10.890625 54.6875 
L 10.890625 58.5 
Q 10.890625 67.625 15.140625 71.796875 
Q 19.390625 75.984375 28.609375 75.984375 
z
" id="DejaVuSans-66"/>
      </defs>
      <g style="fill:#262626;" transform="translate(408.970312 646.118125)scale(0.12 -0.12)">
       <use xlink:href="#DejaVuSans-31"/>
       <use x="63.623047" xlink:href="#DejaVuSans-66"/>
      </g>
     </g>
    </g>
    <g id="xtick_7">
     <g id="line2d_7"/>
     <g id="text_7">
      <!-- 2a -->
      <defs>
       <path d="M 19.1875 8.296875 
L 53.609375 8.296875 
L 53.609375 0 
L 7.328125 0 
L 7.328125 8.296875 
Q 12.9375 14.109375 22.625 23.890625 
Q 32.328125 33.6875 34.8125 36.53125 
Q 39.546875 41.84375 41.421875 45.53125 
Q 43.3125 49.21875 43.3125 52.78125 
Q 43.3125 58.59375 39.234375 62.25 
Q 35.15625 65.921875 28.609375 65.921875 
Q 23.96875 65.921875 18.8125 64.3125 
Q 13.671875 62.703125 7.8125 59.421875 
L 7.8125 69.390625 
Q 13.765625 71.78125 18.9375 73 
Q 24.125 74.21875 28.421875 74.21875 
Q 39.75 74.21875 46.484375 68.546875 
Q 53.21875 62.890625 53.21875 53.421875 
Q 53.21875 48.921875 51.53125 44.890625 
Q 49.859375 40.875 45.40625 35.40625 
Q 44.1875 33.984375 37.640625 27.21875 
Q 31.109375 20.453125 19.1875 8.296875 
z
" id="DejaVuSans-32"/>
      </defs>
      <g style="fill:#262626;" transform="translate(463.205625 646.118125)scale(0.12 -0.12)">
       <use xlink:href="#DejaVuSans-32"/>
       <use x="63.623047" xlink:href="#DejaVuSans-61"/>
      </g>
     </g>
    </g>
    <g id="xtick_8">
     <g id="line2d_8"/>
     <g id="text_8">
      <!-- 2b -->
      <g style="fill:#262626;" transform="translate(518.873438 646.118125)scale(0.12 -0.12)">
       <use xlink:href="#DejaVuSans-32"/>
       <use x="63.623047" xlink:href="#DejaVuSans-62"/>
      </g>
     </g>
    </g>
    <g id="xtick_9">
     <g id="line2d_9"/>
     <g id="text_9">
      <!-- 2c -->
      <g style="fill:#262626;" transform="translate(575.183437 646.118125)scale(0.12 -0.12)">
       <use xlink:href="#DejaVuSans-32"/>
       <use x="63.623047" xlink:href="#DejaVuSans-63"/>
      </g>
     </g>
    </g>
    <g id="xtick_10">
     <g id="line2d_10"/>
     <g id="text_10">
      <!-- 2d -->
      <g style="fill:#262626;" transform="translate(630.473438 646.118125)scale(0.12 -0.12)">
       <use xlink:href="#DejaVuSans-32"/>
       <use x="63.623047" xlink:href="#DejaVuSans-64"/>
      </g>
     </g>
    </g>
    <g id="xtick_11">
     <g id="line2d_11"/>
     <g id="text_11">
      <!-- 2e -->
      <g style="fill:#262626;" transform="translate(686.390625 646.118125)scale(0.12 -0.12)">
       <use xlink:href="#DejaVuSans-32"/>
       <use x="63.623047" xlink:href="#DejaVuSans-65"/>
      </g>
     </g>
    </g>
    <g id="xtick_12">
     <g id="line2d_12"/>
     <g id="text_12">
      <!-- 2f -->
      <g style="fill:#262626;" transform="translate(743.770312 646.118125)scale(0.12 -0.12)">
       <use xlink:href="#DejaVuSans-32"/>
       <use x="63.623047" xlink:href="#DejaVuSans-66"/>
      </g>
     </g>
    </g>
    <g id="text_13">
     <!-- test name -->
     <defs>
      <path d="M 18.3125 70.21875 
L 18.3125 54.6875 
L 36.8125 54.6875 
L 36.8125 47.703125 
L 18.3125 47.703125 
L 18.3125 18.015625 
Q 18.3125 11.328125 20.140625 9.421875 
Q 21.96875 7.515625 27.59375 7.515625 
L 36.8125 7.515625 
L 36.8125 0 
L 27.59375 0 
Q 17.1875 0 13.234375 3.875 
Q 9.28125 7.765625 9.28125 18.015625 
L 9.28125 47.703125 
L 2.6875 47.703125 
L 2.6875 54.6875 
L 9.28125 54.6875 
L 9.28125 70.21875 
z
" id="DejaVuSans-74"/>
      <path d="M 44.28125 53.078125 
L 44.28125 44.578125 
Q 40.484375 46.53125 36.375 47.5 
Q 32.28125 48.484375 27.875 48.484375 
Q 21.1875 48.484375 17.84375 46.4375 
Q 14.5 44.390625 14.5 40.28125 
Q 14.5 37.15625 16.890625 35.375 
Q 19.28125 33.59375 26.515625 31.984375 
L 29.59375 31.296875 
Q 39.15625 29.25 43.1875 25.515625 
Q 47.21875 21.78125 47.21875 15.09375 
Q 47.21875 7.46875 41.1875 3.015625 
Q 35.15625 -1.421875 24.609375 -1.421875 
Q 20.21875 -1.421875 15.453125 -0.5625 
Q 10.6875 0.296875 5.421875 2 
L 5.421875 11.28125 
Q 10.40625 8.6875 15.234375 7.390625 
Q 20.0625 6.109375 24.8125 6.109375 
Q 31.15625 6.109375 34.5625 8.28125 
Q 37.984375 10.453125 37.984375 14.40625 
Q 37.984375 18.0625 35.515625 20.015625 
Q 33.0625 21.96875 24.703125 23.78125 
L 21.578125 24.515625 
Q 13.234375 26.265625 9.515625 29.90625 
Q 5.8125 33.546875 5.8125 39.890625 
Q 5.8125 47.609375 11.28125 51.796875 
Q 16.75 56 26.8125 56 
Q 31.78125 56 36.171875 55.265625 
Q 40.578125 54.546875 44.28125 53.078125 
z
" id="DejaVuSans-73"/>
      <path id="DejaVuSans-20"/>
      <path d="M 54.890625 33.015625 
L 54.890625 0 
L 45.90625 0 
L 45.90625 32.71875 
Q 45.90625 40.484375 42.875 44.328125 
Q 39.84375 48.1875 33.796875 48.1875 
Q 26.515625 48.1875 22.3125 43.546875 
Q 18.109375 38.921875 18.109375 30.90625 
L 18.109375 0 
L 9.078125 0 
L 9.078125 54.6875 
L 18.109375 54.6875 
L 18.109375 46.1875 
Q 21.34375 51.125 25.703125 53.5625 
Q 30.078125 56 35.796875 56 
Q 45.21875 56 50.046875 50.171875 
Q 54.890625 44.34375 54.890625 33.015625 
z
" id="DejaVuSans-6e"/>
      <path d="M 52 44.1875 
Q 55.375 50.25 60.0625 53.125 
Q 64.75 56 71.09375 56 
Q 79.640625 56 84.28125 50.015625 
Q 88.921875 44.046875 88.921875 33.015625 
L 88.921875 0 
L 79.890625 0 
L 79.890625 32.71875 
Q 79.890625 40.578125 77.09375 44.375 
Q 74.3125 48.1875 68.609375 48.1875 
Q 61.625 48.1875 57.5625 43.546875 
Q 53.515625 38.921875 53.515625 30.90625 
L 53.515625 0 
L 44.484375 0 
L 44.484375 32.71875 
Q 44.484375 40.625 41.703125 44.40625 
Q 38.921875 48.1875 33.109375 48.1875 
Q 26.21875 48.1875 22.15625 43.53125 
Q 18.109375 38.875 18.109375 30.90625 
L 18.109375 0 
L 9.078125 0 
L 9.078125 54.6875 
L 18.109375 54.6875 
L 18.109375 46.1875 
Q 21.1875 51.21875 25.484375 53.609375 
Q 29.78125 56 35.6875 56 
Q 41.65625 56 45.828125 52.96875 
Q 50 49.953125 52 44.1875 
z
" id="DejaVuSans-6d"/>
     </defs>
     <g style="fill:#262626;" transform="translate(409.311188 662.643687)scale(0.132 -0.132)">
      <use xlink:href="#DejaVuSans-74"/>
      <use x="39.208984" xlink:href="#DejaVuSans-65"/>
      <use x="100.732422" xlink:href="#DejaVuSans-73"/>
      <use x="152.832031" xlink:href="#DejaVuSans-74"/>
      <use x="192.041016" xlink:href="#DejaVuSans-20"/>
      <use x="223.828125" xlink:href="#DejaVuSans-6e"/>
      <use x="287.207031" xlink:href="#DejaVuSans-61"/>
      <use x="348.486328" xlink:href="#DejaVuSans-6d"/>
      <use x="445.898438" xlink:href="#DejaVuSans-65"/>
     </g>
    </g>
   </g>
   <g id="matplotlib.axis_2">
    <g id="ytick_1">
     <g id="line2d_13">
      <path clip-path="url(#p59eab6fe12)" d="M 108 630 
L 777.6 630 
" style="fill:none;stroke:#ffffff;stroke-linecap:round;"/>
     </g>
     <g id="line2d_14"/>
     <g id="text_14">
      <!-- 0 -->
      <defs>
       <path d="M 31.78125 66.40625 
Q 24.171875 66.40625 20.328125 58.90625 
Q 16.5 51.421875 16.5 36.375 
Q 16.5 21.390625 20.328125 13.890625 
Q 24.171875 6.390625 31.78125 6.390625 
Q 39.453125 6.390625 43.28125 13.890625 
Q 47.125 21.390625 47.125 36.375 
Q 47.125 51.421875 43.28125 58.90625 
Q 39.453125 66.40625 31.78125 66.40625 
z
M 31.78125 74.21875 
Q 44.046875 74.21875 50.515625 64.515625 
Q 56.984375 54.828125 56.984375 36.375 
Q 56.984375 17.96875 50.515625 8.265625 
Q 44.046875 -1.421875 31.78125 -1.421875 
Q 19.53125 -1.421875 13.0625 8.265625 
Q 6.59375 17.96875 6.59375 36.375 
Q 6.59375 54.828125 13.0625 64.515625 
Q 19.53125 74.21875 31.78125 74.21875 
z
" id="DejaVuSans-30"/>
      </defs>
      <g style="fill:#262626;" transform="translate(93.365 634.559062)scale(0.12 -0.12)">
       <use xlink:href="#DejaVuSans-30"/>
      </g>
     </g>
    </g>
    <g id="ytick_2">
     <g id="line2d_15">
      <path clip-path="url(#p59eab6fe12)" d="M 108 547.590289 
L 777.6 547.590289 
" style="fill:none;stroke:#ffffff;stroke-linecap:round;"/>
     </g>
     <g id="line2d_16"/>
     <g id="text_15">
      <!-- 5 -->
      <defs>
       <path d="M 10.796875 72.90625 
L 49.515625 72.90625 
L 49.515625 64.59375 
L 19.828125 64.59375 
L 19.828125 46.734375 
Q 21.96875 47.46875 24.109375 47.828125 
Q 26.265625 48.1875 28.421875 48.1875 
Q 40.625 48.1875 47.75 41.5 
Q 54.890625 34.8125 54.890625 23.390625 
Q 54.890625 11.625 47.5625 5.09375 
Q 40.234375 -1.421875 26.90625 -1.421875 
Q 22.3125 -1.421875 17.546875 -0.640625 
Q 12.796875 0.140625 7.71875 1.703125 
L 7.71875 11.625 
Q 12.109375 9.234375 16.796875 8.0625 
Q 21.484375 6.890625 26.703125 6.890625 
Q 35.15625 6.890625 40.078125 11.328125 
Q 45.015625 15.765625 45.015625 23.390625 
Q 45.015625 31 40.078125 35.4375 
Q 35.15625 39.890625 26.703125 39.890625 
Q 22.75 39.890625 18.8125 39.015625 
Q 14.890625 38.140625 10.796875 36.28125 
z
" id="DejaVuSans-35"/>
      </defs>
      <g style="fill:#262626;" transform="translate(93.365 552.149352)scale(0.12 -0.12)">
       <use xlink:href="#DejaVuSans-35"/>
      </g>
     </g>
    </g>
    <g id="ytick_3">
     <g id="line2d_17">
      <path clip-path="url(#p59eab6fe12)" d="M 108 465.180578 
L 777.6 465.180578 
" style="fill:none;stroke:#ffffff;stroke-linecap:round;"/>
     </g>
     <g id="line2d_18"/>
     <g id="text_16">
      <!-- 10 -->
      <g style="fill:#262626;" transform="translate(85.73 469.739641)scale(0.12 -0.12)">
       <use xlink:href="#DejaVuSans-31"/>
       <use x="63.623047" xlink:href="#DejaVuSans-30"/>
      </g>
     </g>
    </g>
    <g id="ytick_4">
     <g id="line2d_19">
      <path clip-path="url(#p59eab6fe12)" d="M 108 382.770867 
L 777.6 382.770867 
" style="fill:none;stroke:#ffffff;stroke-linecap:round;"/>
     </g>
     <g id="line2d_20"/>
     <g id="text_17">
      <!-- 15 -->
      <g style="fill:#262626;" transform="translate(85.73 387.32993)scale(0.12 -0.12)">
       <use xlink:href="#DejaVuSans-31"/>
       <use x="63.623047" xlink:href="#DejaVuSans-35"/>
      </g>
     </g>
    </g>
    <g id="ytick_5">
     <g id="line2d_21">
      <path clip-path="url(#p59eab6fe12)" d="M 108 300.361156 
L 777.6 300.361156 
" style="fill:none;stroke:#ffffff;stroke-linecap:round;"/>
     </g>
     <g id="line2d_22"/>
     <g id="text_18">
      <!-- 20 -->
      <g style="fill:#262626;" transform="translate(85.73 304.920219)scale(0.12 -0.12)">
       <use xlink:href="#DejaVuSans-32"/>
       <use x="63.623047" xlink:href="#DejaVuSans-30"/>
      </g>
     </g>
    </g>
    <g id="ytick_6">
     <g id="line2d_23">
      <path clip-path="url(#p59eab6fe12)" d="M 108 217.951446 
L 777.6 217.951446 
" style="fill:none;stroke:#ffffff;stroke-linecap:round;"/>
     </g>
     <g id="line2d_24"/>
     <g id="text_19">
      <!-- 25 -->
      <g style="fill:#262626;" transform="translate(85.73 222.510508)scale(0.12 -0.12)">
       <use xlink:href="#DejaVuSans-32"/>
       <use x="63.623047" xlink:href="#DejaVuSans-35"/>
      </g>
     </g>
    </g>
    <g id="ytick_7">
     <g id="line2d_25">
      <path clip-path="url(#p59eab6fe12)" d="M 108 135.541735 
L 777.6 135.541735 
" style="fill:none;stroke:#ffffff;stroke-linecap:round;"/>
     </g>
     <g id="line2d_26"/>
     <g id="text_20">
      <!-- 30 -->
      <defs>
       <path d="M 40.578125 39.3125 
Q 47.65625 37.796875 51.625 33 
Q 55.609375 28.21875 55.609375 21.1875 
Q 55.609375 10.40625 48.1875 4.484375 
Q 40.765625 -1.421875 27.09375 -1.421875 
Q 22.515625 -1.421875 17.65625 -0.515625 
Q 12.796875 0.390625 7.625 2.203125 
L 7.625 11.71875 
Q 11.71875 9.328125 16.59375 8.109375 
Q 21.484375 6.890625 26.8125 6.890625 
Q 36.078125 6.890625 40.9375 10.546875 
Q 45.796875 14.203125 45.796875 21.1875 
Q 45.796875 27.640625 41.28125 31.265625 
Q 36.765625 34.90625 28.71875 34.90625 
L 20.21875 34.90625 
L 20.21875 43.015625 
L 29.109375 43.015625 
Q 36.375 43.015625 40.234375 45.921875 
Q 44.09375 48.828125 44.09375 54.296875 
Q 44.09375 59.90625 40.109375 62.90625 
Q 36.140625 65.921875 28.71875 65.921875 
Q 24.65625 65.921875 20.015625 65.03125 
Q 15.375 64.15625 9.8125 62.3125 
L 9.8125 71.09375 
Q 15.4375 72.65625 20.34375 73.4375 
Q 25.25 74.21875 29.59375 74.21875 
Q 40.828125 74.21875 47.359375 69.109375 
Q 53.90625 64.015625 53.90625 55.328125 
Q 53.90625 49.265625 50.4375 45.09375 
Q 46.96875 40.921875 40.578125 39.3125 
z
" id="DejaVuSans-33"/>
      </defs>
      <g style="fill:#262626;" transform="translate(85.73 140.100797)scale(0.12 -0.12)">
       <use xlink:href="#DejaVuSans-33"/>
       <use x="63.623047" xlink:href="#DejaVuSans-30"/>
      </g>
     </g>
    </g>
    <g id="text_21">
     <!-- speedup -->
     <defs>
      <path d="M 18.109375 8.203125 
L 18.109375 -20.796875 
L 9.078125 -20.796875 
L 9.078125 54.6875 
L 18.109375 54.6875 
L 18.109375 46.390625 
Q 20.953125 51.265625 25.265625 53.625 
Q 29.59375 56 35.59375 56 
Q 45.5625 56 51.78125 48.09375 
Q 58.015625 40.1875 58.015625 27.296875 
Q 58.015625 14.40625 51.78125 6.484375 
Q 45.5625 -1.421875 35.59375 -1.421875 
Q 29.59375 -1.421875 25.265625 0.953125 
Q 20.953125 3.328125 18.109375 8.203125 
z
M 48.6875 27.296875 
Q 48.6875 37.203125 44.609375 42.84375 
Q 40.53125 48.484375 33.40625 48.484375 
Q 26.265625 48.484375 22.1875 42.84375 
Q 18.109375 37.203125 18.109375 27.296875 
Q 18.109375 17.390625 22.1875 11.75 
Q 26.265625 6.109375 33.40625 6.109375 
Q 40.53125 6.109375 44.609375 11.75 
Q 48.6875 17.390625 48.6875 27.296875 
z
" id="DejaVuSans-70"/>
      <path d="M 8.5 21.578125 
L 8.5 54.6875 
L 17.484375 54.6875 
L 17.484375 21.921875 
Q 17.484375 14.15625 20.5 10.265625 
Q 23.53125 6.390625 29.59375 6.390625 
Q 36.859375 6.390625 41.078125 11.03125 
Q 45.3125 15.671875 45.3125 23.6875 
L 45.3125 54.6875 
L 54.296875 54.6875 
L 54.296875 0 
L 45.3125 0 
L 45.3125 8.40625 
Q 42.046875 3.421875 37.71875 1 
Q 33.40625 -1.421875 27.6875 -1.421875 
Q 18.265625 -1.421875 13.375 4.4375 
Q 8.5 10.296875 8.5 21.578125 
z
M 31.109375 56 
z
" id="DejaVuSans-75"/>
     </defs>
     <g style="fill:#262626;" transform="translate(78.984813 386.512969)rotate(-90)scale(0.132 -0.132)">
      <use xlink:href="#DejaVuSans-73"/>
      <use x="52.099609" xlink:href="#DejaVuSans-70"/>
      <use x="115.576172" xlink:href="#DejaVuSans-65"/>
      <use x="177.099609" xlink:href="#DejaVuSans-65"/>
      <use x="238.623047" xlink:href="#DejaVuSans-64"/>
      <use x="302.099609" xlink:href="#DejaVuSans-75"/>
      <use x="365.478516" xlink:href="#DejaVuSans-70"/>
     </g>
    </g>
   </g>
   <g id="patch_3">
    <path clip-path="url(#p59eab6fe12)" d="M 113.58 630 
L 117.638182 630 
L 117.638182 617.9517 
L 113.58 617.9517 
z
" style="fill:#4878cf;"/>
   </g>
   <g id="patch_4">
    <path clip-path="url(#p59eab6fe12)" d="M 169.38 630 
L 173.438182 630 
L 173.438182 614.04548 
L 169.38 614.04548 
z
" style="fill:#4878cf;"/>
   </g>
   <g id="patch_5">
    <path clip-path="url(#p59eab6fe12)" d="M 225.18 630 
L 229.238182 630 
L 229.238182 614.12789 
L 225.18 614.12789 
z
" style="fill:#4878cf;"/>
   </g>
   <g id="patch_6">
    <path clip-path="url(#p59eab6fe12)" d="M 280.98 630 
L 285.038182 630 
L 285.038182 612.759888 
L 280.98 612.759888 
z
" style="fill:#4878cf;"/>
   </g>
   <g id="patch_7">
    <path clip-path="url(#p59eab6fe12)" d="M 336.78 630 
L 340.838182 630 
L 340.838182 612.94119 
L 336.78 612.94119 
z
" style="fill:#4878cf;"/>
   </g>
   <g id="patch_8">
    <path clip-path="url(#p59eab6fe12)" d="M 392.58 630 
L 396.638182 630 
L 396.638182 612.660997 
L 392.58 612.660997 
z
" style="fill:#4878cf;"/>
   </g>
   <g id="patch_9">
    <path clip-path="url(#p59eab6fe12)" d="M 448.38 630 
L 452.438182 630 
L 452.438182 618.330785 
L 448.38 618.330785 
z
" style="fill:#4878cf;"/>
   </g>
   <g id="patch_10">
    <path clip-path="url(#p59eab6fe12)" d="M 504.18 630 
L 508.238182 630 
L 508.238182 611.342441 
L 504.18 611.342441 
z
" style="fill:#4878cf;"/>
   </g>
   <g id="patch_11">
    <path clip-path="url(#p59eab6fe12)" d="M 559.98 630 
L 564.038182 630 
L 564.038182 613.518058 
L 559.98 613.518058 
z
" style="fill:#4878cf;"/>
   </g>
   <g id="patch_12">
    <path clip-path="url(#p59eab6fe12)" d="M 615.78 630 
L 619.838182 630 
L 619.838182 611.292996 
L 615.78 611.292996 
z
" style="fill:#4878cf;"/>
   </g>
   <g id="patch_13">
    <path clip-path="url(#p59eab6fe12)" d="M 671.58 630 
L 675.638182 630 
L 675.638182 611.556707 
L 671.58 611.556707 
z
" style="fill:#4878cf;"/>
   </g>
   <g id="patch_14">
    <path clip-path="url(#p59eab6fe12)" d="M 727.38 630 
L 731.438182 630 
L 731.438182 612.85878 
L 727.38 612.85878 
z
" style="fill:#4878cf;"/>
   </g>
   <g id="patch_15">
    <path clip-path="url(#p59eab6fe12)" d="M 117.638182 630 
L 121.696364 630 
L 121.696364 614.177336 
L 117.638182 614.177336 
z
" style="fill:#6acc65;"/>
   </g>
   <g id="patch_16">
    <path clip-path="url(#p59eab6fe12)" d="M 173.438182 630 
L 177.496364 630 
L 177.496364 605.623208 
L 173.438182 605.623208 
z
" style="fill:#6acc65;"/>
   </g>
   <g id="patch_17">
    <path clip-path="url(#p59eab6fe12)" d="M 229.238182 630 
L 233.296364 630 
L 233.296364 595.898862 
L 229.238182 595.898862 
z
" style="fill:#6acc65;"/>
   </g>
   <g id="patch_18">
    <path clip-path="url(#p59eab6fe12)" d="M 285.038182 630 
L 289.096364 630 
L 289.096364 592.223389 
L 285.038182 592.223389 
z
" style="fill:#6acc65;"/>
   </g>
   <g id="patch_19">
    <path clip-path="url(#p59eab6fe12)" d="M 340.838182 630 
L 344.896364 630 
L 344.896364 593.377124 
L 340.838182 593.377124 
z
" style="fill:#6acc65;"/>
   </g>
   <g id="patch_20">
    <path clip-path="url(#p59eab6fe12)" d="M 396.638182 630 
L 400.696364 630 
L 400.696364 592.470618 
L 396.638182 592.470618 
z
" style="fill:#6acc65;"/>
   </g>
   <g id="patch_21">
    <path clip-path="url(#p59eab6fe12)" d="M 452.438182 630 
L 456.496364 630 
L 456.496364 617.242977 
L 452.438182 617.242977 
z
" style="fill:#6acc65;"/>
   </g>
   <g id="patch_22">
    <path clip-path="url(#p59eab6fe12)" d="M 508.238182 630 
L 512.296364 630 
L 512.296364 614.276227 
L 508.238182 614.276227 
z
" style="fill:#6acc65;"/>
   </g>
   <g id="patch_23">
    <path clip-path="url(#p59eab6fe12)" d="M 564.038182 630 
L 568.096364 630 
L 568.096364 601.074191 
L 564.038182 601.074191 
z
" style="fill:#6acc65;"/>
   </g>
   <g id="patch_24">
    <path clip-path="url(#p59eab6fe12)" d="M 619.838182 630 
L 623.896364 630 
L 623.896364 593.113413 
L 619.838182 593.113413 
z
" style="fill:#6acc65;"/>
   </g>
   <g id="patch_25">
    <path clip-path="url(#p59eab6fe12)" d="M 675.638182 630 
L 679.696364 630 
L 679.696364 593.195823 
L 675.638182 593.195823 
z
" style="fill:#6acc65;"/>
   </g>
   <g id="patch_26">
    <path clip-path="url(#p59eab6fe12)" d="M 731.438182 630 
L 735.496364 630 
L 735.496364 590.657604 
L 731.438182 590.657604 
z
" style="fill:#6acc65;"/>
   </g>
   <g id="patch_27">
    <path clip-path="url(#p59eab6fe12)" d="M 121.696364 630 
L 125.754545 630 
L 125.754545 612.693961 
L 121.696364 612.693961 
z
" style="fill:#d65f5f;"/>
   </g>
   <g id="patch_28">
    <path clip-path="url(#p59eab6fe12)" d="M 177.496364 630 
L 181.554545 630 
L 181.554545 599.327106 
L 177.496364 599.327106 
z
" style="fill:#d65f5f;"/>
   </g>
   <g id="patch_29">
    <path clip-path="url(#p59eab6fe12)" d="M 233.296364 630 
L 237.354545 630 
L 237.354545 568.110307 
L 233.296364 568.110307 
z
" style="fill:#d65f5f;"/>
   </g>
   <g id="patch_30">
    <path clip-path="url(#p59eab6fe12)" d="M 289.096364 630 
L 293.154545 630 
L 293.154545 555.897188 
L 289.096364 555.897188 
z
" style="fill:#d65f5f;"/>
   </g>
   <g id="patch_31">
    <path clip-path="url(#p59eab6fe12)" d="M 344.896364 630 
L 348.954545 630 
L 348.954545 549.469231 
L 344.896364 549.469231 
z
" style="fill:#d65f5f;"/>
   </g>
   <g id="patch_32">
    <path clip-path="url(#p59eab6fe12)" d="M 400.696364 630 
L 404.754545 630 
L 404.754545 548.809953 
L 400.696364 548.809953 
z
" style="fill:#d65f5f;"/>
   </g>
   <g id="patch_33">
    <path clip-path="url(#p59eab6fe12)" d="M 456.496364 630 
L 460.554545 630 
L 460.554545 618.841725 
L 456.496364 618.841725 
z
" style="fill:#d65f5f;"/>
   </g>
   <g id="patch_34">
    <path clip-path="url(#p59eab6fe12)" d="M 512.296364 630 
L 516.354545 630 
L 516.354545 613.781769 
L 512.296364 613.781769 
z
" style="fill:#d65f5f;"/>
   </g>
   <g id="patch_35">
    <path clip-path="url(#p59eab6fe12)" d="M 568.096364 630 
L 572.154545 630 
L 572.154545 581.576054 
L 568.096364 581.576054 
z
" style="fill:#d65f5f;"/>
   </g>
   <g id="patch_36">
    <path clip-path="url(#p59eab6fe12)" d="M 623.896364 630 
L 627.954545 630 
L 627.954545 563.000905 
L 623.896364 563.000905 
z
" style="fill:#d65f5f;"/>
   </g>
   <g id="patch_37">
    <path clip-path="url(#p59eab6fe12)" d="M 679.696364 630 
L 683.754545 630 
L 683.754545 546.766192 
L 679.696364 546.766192 
z
" style="fill:#d65f5f;"/>
   </g>
   <g id="patch_38">
    <path clip-path="url(#p59eab6fe12)" d="M 735.496364 630 
L 739.554545 630 
L 739.554545 547.507879 
L 735.496364 547.507879 
z
" style="fill:#d65f5f;"/>
   </g>
   <g id="patch_39">
    <path clip-path="url(#p59eab6fe12)" d="M 125.754545 630 
L 129.812727 630 
L 129.812727 613.847697 
L 125.754545 613.847697 
z
" style="fill:#b47cc7;"/>
   </g>
   <g id="patch_40">
    <path clip-path="url(#p59eab6fe12)" d="M 181.554545 630 
L 185.612727 630 
L 185.612727 596.739441 
L 181.554545 596.739441 
z
" style="fill:#b47cc7;"/>
   </g>
   <g id="patch_41">
    <path clip-path="url(#p59eab6fe12)" d="M 237.354545 630 
L 241.412727 630 
L 241.412727 549.864797 
L 237.354545 549.864797 
z
" style="fill:#b47cc7;"/>
   </g>
   <g id="patch_42">
    <path clip-path="url(#p59eab6fe12)" d="M 293.154545 630 
L 297.212727 630 
L 297.212727 534.965121 
L 293.154545 534.965121 
z
" style="fill:#b47cc7;"/>
   </g>
   <g id="patch_43">
    <path clip-path="url(#p59eab6fe12)" d="M 348.954545 630 
L 353.012727 630 
L 353.012727 525.850607 
L 348.954545 525.850607 
z
" style="fill:#b47cc7;"/>
   </g>
   <g id="patch_44">
    <path clip-path="url(#p59eab6fe12)" d="M 404.754545 630 
L 408.812727 630 
L 408.812727 509.615894 
L 404.754545 509.615894 
z
" style="fill:#b47cc7;"/>
   </g>
   <g id="patch_45">
    <path clip-path="url(#p59eab6fe12)" d="M 460.554545 630 
L 464.612727 630 
L 464.612727 618.676906 
L 460.554545 618.676906 
z
" style="fill:#b47cc7;"/>
   </g>
   <g id="patch_46">
    <path clip-path="url(#p59eab6fe12)" d="M 516.354545 630 
L 520.412727 630 
L 520.412727 613.270829 
L 516.354545 613.270829 
z
" style="fill:#b47cc7;"/>
   </g>
   <g id="patch_47">
    <path clip-path="url(#p59eab6fe12)" d="M 572.154545 630 
L 576.212727 630 
L 576.212727 567.500475 
L 572.154545 567.500475 
z
" style="fill:#b47cc7;"/>
   </g>
   <g id="patch_48">
    <path clip-path="url(#p59eab6fe12)" d="M 627.954545 630 
L 632.012727 630 
L 632.012727 524.532052 
L 627.954545 524.532052 
z
" style="fill:#b47cc7;"/>
   </g>
   <g id="patch_49">
    <path clip-path="url(#p59eab6fe12)" d="M 683.754545 630 
L 687.812727 630 
L 687.812727 519.620433 
L 683.754545 519.620433 
z
" style="fill:#b47cc7;"/>
   </g>
   <g id="patch_50">
    <path clip-path="url(#p59eab6fe12)" d="M 739.554545 630 
L 743.612727 630 
L 743.612727 513.917681 
L 739.554545 513.917681 
z
" style="fill:#b47cc7;"/>
   </g>
   <g id="patch_51">
    <path clip-path="url(#p59eab6fe12)" d="M 129.812727 630 
L 133.870909 630 
L 133.870909 618.759315 
L 129.812727 618.759315 
z
" style="fill:#c4ad66;"/>
   </g>
   <g id="patch_52">
    <path clip-path="url(#p59eab6fe12)" d="M 185.612727 630 
L 189.670909 630 
L 189.670909 596.937224 
L 185.612727 596.937224 
z
" style="fill:#c4ad66;"/>
   </g>
   <g id="patch_53">
    <path clip-path="url(#p59eab6fe12)" d="M 241.412727 630 
L 245.470909 630 
L 245.470909 519.818217 
L 241.412727 519.818217 
z
" style="fill:#c4ad66;"/>
   </g>
   <g id="patch_54">
    <path clip-path="url(#p59eab6fe12)" d="M 297.212727 630 
L 301.270909 630 
L 301.270909 495.622725 
L 297.212727 495.622725 
z
" style="fill:#c4ad66;"/>
   </g>
   <g id="patch_55">
    <path clip-path="url(#p59eab6fe12)" d="M 353.012727 630 
L 357.070909 630 
L 357.070909 488.634382 
L 353.012727 488.634382 
z
" style="fill:#c4ad66;"/>
   </g>
   <g id="patch_56">
    <path clip-path="url(#p59eab6fe12)" d="M 408.812727 630 
L 412.870909 630 
L 412.870909 475.399382 
L 408.812727 475.399382 
z
" style="fill:#c4ad66;"/>
   </g>
   <g id="patch_57">
    <path clip-path="url(#p59eab6fe12)" d="M 464.612727 630 
L 468.670909 630 
L 468.670909 613.485094 
L 464.612727 613.485094 
z
" style="fill:#c4ad66;"/>
   </g>
   <g id="patch_58">
    <path clip-path="url(#p59eab6fe12)" d="M 520.412727 630 
L 524.470909 630 
L 524.470909 613.073045 
L 520.412727 613.073045 
z
" style="fill:#c4ad66;"/>
   </g>
   <g id="patch_59">
    <path clip-path="url(#p59eab6fe12)" d="M 576.212727 630 
L 580.270909 630 
L 580.270909 551.958004 
L 576.212727 551.958004 
z
" style="fill:#c4ad66;"/>
   </g>
   <g id="patch_60">
    <path clip-path="url(#p59eab6fe12)" d="M 632.012727 630 
L 636.070909 630 
L 636.070909 499.99044 
L 632.012727 499.99044 
z
" style="fill:#c4ad66;"/>
   </g>
   <g id="patch_61">
    <path clip-path="url(#p59eab6fe12)" d="M 687.812727 630 
L 691.870909 630 
L 691.870909 468.608822 
L 687.812727 468.608822 
z
" style="fill:#c4ad66;"/>
   </g>
   <g id="patch_62">
    <path clip-path="url(#p59eab6fe12)" d="M 743.612727 630 
L 747.670909 630 
L 747.670909 480.854905 
L 743.612727 480.854905 
z
" style="fill:#c4ad66;"/>
   </g>
   <g id="patch_63">
    <path clip-path="url(#p59eab6fe12)" d="M 133.870909 630 
L 137.929091 630 
L 137.929091 613.320275 
L 133.870909 613.320275 
z
" style="fill:#77bedb;"/>
   </g>
   <g id="patch_64">
    <path clip-path="url(#p59eab6fe12)" d="M 189.670909 630 
L 193.729091 630 
L 193.729091 594.745126 
L 189.670909 594.745126 
z
" style="fill:#77bedb;"/>
   </g>
   <g id="patch_65">
    <path clip-path="url(#p59eab6fe12)" d="M 245.470909 630 
L 249.529091 630 
L 249.529091 478.399096 
L 245.470909 478.399096 
z
" style="fill:#77bedb;"/>
   </g>
   <g id="patch_66">
    <path clip-path="url(#p59eab6fe12)" d="M 301.270909 630 
L 305.329091 630 
L 305.329091 444.380367 
L 301.270909 444.380367 
z
" style="fill:#77bedb;"/>
   </g>
   <g id="patch_67">
    <path clip-path="url(#p59eab6fe12)" d="M 357.070909 630 
L 361.129091 630 
L 361.129091 407.938793 
L 357.070909 407.938793 
z
" style="fill:#77bedb;"/>
   </g>
   <g id="patch_68">
    <path clip-path="url(#p59eab6fe12)" d="M 412.870909 630 
L 416.929091 630 
L 416.929091 404.411657 
L 412.870909 404.411657 
z
" style="fill:#77bedb;"/>
   </g>
   <g id="patch_69">
    <path clip-path="url(#p59eab6fe12)" d="M 468.670909 630 
L 472.729091 630 
L 472.729091 618.231893 
L 468.670909 618.231893 
z
" style="fill:#77bedb;"/>
   </g>
   <g id="patch_70">
    <path clip-path="url(#p59eab6fe12)" d="M 524.470909 630 
L 528.529091 630 
L 528.529091 611.490779 
L 524.470909 611.490779 
z
" style="fill:#77bedb;"/>
   </g>
   <g id="patch_71">
    <path clip-path="url(#p59eab6fe12)" d="M 580.270909 630 
L 584.329091 630 
L 584.329091 541.755682 
L 580.270909 541.755682 
z
" style="fill:#77bedb;"/>
   </g>
   <g id="patch_72">
    <path clip-path="url(#p59eab6fe12)" d="M 636.070909 630 
L 640.129091 630 
L 640.129091 460.054694 
L 636.070909 460.054694 
z
" style="fill:#77bedb;"/>
   </g>
   <g id="patch_73">
    <path clip-path="url(#p59eab6fe12)" d="M 691.870909 630 
L 695.929091 630 
L 695.929091 417.349982 
L 691.870909 417.349982 
z
" style="fill:#77bedb;"/>
   </g>
   <g id="patch_74">
    <path clip-path="url(#p59eab6fe12)" d="M 747.670909 630 
L 751.729091 630 
L 751.729091 400.86804 
L 747.670909 400.86804 
z
" style="fill:#77bedb;"/>
   </g>
   <g id="patch_75">
    <path clip-path="url(#p59eab6fe12)" d="M 137.929091 630 
L 141.987273 630 
L 141.987273 613.106009 
L 137.929091 613.106009 
z
" style="fill:#4878cf;"/>
   </g>
   <g id="patch_76">
    <path clip-path="url(#p59eab6fe12)" d="M 193.729091 630 
L 197.787273 630 
L 197.787273 601.453276 
L 193.729091 601.453276 
z
" style="fill:#4878cf;"/>
   </g>
   <g id="patch_77">
    <path clip-path="url(#p59eab6fe12)" d="M 249.529091 630 
L 253.587273 630 
L 253.587273 478.184831 
L 249.529091 478.184831 
z
" style="fill:#4878cf;"/>
   </g>
   <g id="patch_78">
    <path clip-path="url(#p59eab6fe12)" d="M 305.329091 630 
L 309.387273 630 
L 309.387273 426.761171 
L 305.329091 426.761171 
z
" style="fill:#4878cf;"/>
   </g>
   <g id="patch_79">
    <path clip-path="url(#p59eab6fe12)" d="M 361.129091 630 
L 365.187273 630 
L 365.187273 369.140301 
L 361.129091 369.140301 
z
" style="fill:#4878cf;"/>
   </g>
   <g id="patch_80">
    <path clip-path="url(#p59eab6fe12)" d="M 416.929091 630 
L 420.987273 630 
L 420.987273 282.989189 
L 416.929091 282.989189 
z
" style="fill:#4878cf;"/>
   </g>
   <g id="patch_81">
    <path clip-path="url(#p59eab6fe12)" d="M 472.729091 630 
L 476.787273 630 
L 476.787273 617.720953 
L 472.729091 617.720953 
z
" style="fill:#4878cf;"/>
   </g>
   <g id="patch_82">
    <path clip-path="url(#p59eab6fe12)" d="M 528.529091 630 
L 532.587273 630 
L 532.587273 618.891171 
L 528.529091 618.891171 
z
" style="fill:#4878cf;"/>
   </g>
   <g id="patch_83">
    <path clip-path="url(#p59eab6fe12)" d="M 584.329091 630 
L 588.387273 630 
L 588.387273 540.074523 
L 584.329091 540.074523 
z
" style="fill:#4878cf;"/>
   </g>
   <g id="patch_84">
    <path clip-path="url(#p59eab6fe12)" d="M 640.129091 630 
L 644.187273 630 
L 644.187273 418.240007 
L 640.129091 418.240007 
z
" style="fill:#4878cf;"/>
   </g>
   <g id="patch_85">
    <path clip-path="url(#p59eab6fe12)" d="M 695.929091 630 
L 699.987273 630 
L 699.987273 319.99115 
L 695.929091 319.99115 
z
" style="fill:#4878cf;"/>
   </g>
   <g id="patch_86">
    <path clip-path="url(#p59eab6fe12)" d="M 751.729091 630 
L 755.787273 630 
L 755.787273 316.414568 
L 751.729091 316.414568 
z
" style="fill:#4878cf;"/>
   </g>
   <g id="patch_87">
    <path clip-path="url(#p59eab6fe12)" d="M 141.987273 630 
L 146.045455 630 
L 146.045455 614.984951 
L 141.987273 614.984951 
z
" style="fill:#6acc65;"/>
   </g>
   <g id="patch_88">
    <path clip-path="url(#p59eab6fe12)" d="M 197.787273 630 
L 201.845455 630 
L 201.845455 592.437654 
L 197.787273 592.437654 
z
" style="fill:#6acc65;"/>
   </g>
   <g id="patch_89">
    <path clip-path="url(#p59eab6fe12)" d="M 253.587273 630 
L 257.645455 630 
L 257.645455 459.345971 
L 253.587273 459.345971 
z
" style="fill:#6acc65;"/>
   </g>
   <g id="patch_90">
    <path clip-path="url(#p59eab6fe12)" d="M 309.387273 630 
L 313.445455 630 
L 313.445455 363.86608 
L 309.387273 363.86608 
z
" style="fill:#6acc65;"/>
   </g>
   <g id="patch_91">
    <path clip-path="url(#p59eab6fe12)" d="M 365.187273 630 
L 369.245455 630 
L 369.245455 301.531374 
L 365.187273 301.531374 
z
" style="fill:#6acc65;"/>
   </g>
   <g id="patch_92">
    <path clip-path="url(#p59eab6fe12)" d="M 420.987273 630 
L 425.045455 630 
L 425.045455 266.35891 
L 420.987273 266.35891 
z
" style="fill:#6acc65;"/>
   </g>
   <g id="patch_93">
    <path clip-path="url(#p59eab6fe12)" d="M 476.787273 630 
L 480.845455 630 
L 480.845455 617.984664 
L 476.787273 617.984664 
z
" style="fill:#6acc65;"/>
   </g>
   <g id="patch_94">
    <path clip-path="url(#p59eab6fe12)" d="M 532.587273 630 
L 536.645455 630 
L 536.645455 609.496464 
L 532.587273 609.496464 
z
" style="fill:#6acc65;"/>
   </g>
   <g id="patch_95">
    <path clip-path="url(#p59eab6fe12)" d="M 588.387273 630 
L 592.445455 630 
L 592.445455 528.982176 
L 588.387273 528.982176 
z
" style="fill:#6acc65;"/>
   </g>
   <g id="patch_96">
    <path clip-path="url(#p59eab6fe12)" d="M 644.187273 630 
L 648.245455 630 
L 648.245455 360.833402 
L 644.187273 360.833402 
z
" style="fill:#6acc65;"/>
   </g>
   <g id="patch_97">
    <path clip-path="url(#p59eab6fe12)" d="M 699.987273 630 
L 704.045455 630 
L 704.045455 251.640535 
L 699.987273 251.640535 
z
" style="fill:#6acc65;"/>
   </g>
   <g id="patch_98">
    <path clip-path="url(#p59eab6fe12)" d="M 755.787273 630 
L 759.845455 630 
L 759.845455 234.021339 
L 755.787273 234.021339 
z
" style="fill:#6acc65;"/>
   </g>
   <g id="patch_99">
    <path clip-path="url(#p59eab6fe12)" d="M 146.045455 630 
L 150.103636 630 
L 150.103636 615.627746 
L 146.045455 615.627746 
z
" style="fill:#d65f5f;"/>
   </g>
   <g id="patch_100">
    <path clip-path="url(#p59eab6fe12)" d="M 201.845455 630 
L 205.903636 630 
L 205.903636 592.091533 
L 201.845455 592.091533 
z
" style="fill:#d65f5f;"/>
   </g>
   <g id="patch_101">
    <path clip-path="url(#p59eab6fe12)" d="M 257.645455 630 
L 261.703636 630 
L 261.703636 458.390018 
L 257.645455 458.390018 
z
" style="fill:#d65f5f;"/>
   </g>
   <g id="patch_102">
    <path clip-path="url(#p59eab6fe12)" d="M 313.445455 630 
L 317.503636 630 
L 317.503636 385.111303 
L 313.445455 385.111303 
z
" style="fill:#d65f5f;"/>
   </g>
   <g id="patch_103">
    <path clip-path="url(#p59eab6fe12)" d="M 369.245455 630 
L 373.303636 630 
L 373.303636 270.133275 
L 369.245455 270.133275 
z
" style="fill:#d65f5f;"/>
   </g>
   <g id="patch_104">
    <path clip-path="url(#p59eab6fe12)" d="M 425.045455 630 
L 429.103636 630 
L 429.103636 219.830387 
L 425.045455 219.830387 
z
" style="fill:#d65f5f;"/>
   </g>
   <g id="patch_105">
    <path clip-path="url(#p59eab6fe12)" d="M 480.845455 630 
L 484.903636 630 
L 484.903636 618.347267 
L 480.845455 618.347267 
z
" style="fill:#d65f5f;"/>
   </g>
   <g id="patch_106">
    <path clip-path="url(#p59eab6fe12)" d="M 536.645455 630 
L 540.703636 630 
L 540.703636 610.979839 
L 536.645455 610.979839 
z
" style="fill:#d65f5f;"/>
   </g>
   <g id="patch_107">
    <path clip-path="url(#p59eab6fe12)" d="M 592.445455 630 
L 596.503636 630 
L 596.503636 519.686361 
L 592.445455 519.686361 
z
" style="fill:#d65f5f;"/>
   </g>
   <g id="patch_108">
    <path clip-path="url(#p59eab6fe12)" d="M 648.245455 630 
L 652.303636 630 
L 652.303636 363.404585 
L 648.245455 363.404585 
z
" style="fill:#d65f5f;"/>
   </g>
   <g id="patch_109">
    <path clip-path="url(#p59eab6fe12)" d="M 704.045455 630 
L 708.103636 630 
L 708.103636 255.991768 
L 704.045455 255.991768 
z
" style="fill:#d65f5f;"/>
   </g>
   <g id="patch_110">
    <path clip-path="url(#p59eab6fe12)" d="M 759.845455 630 
L 763.903636 630 
L 763.903636 171.620706 
L 759.845455 171.620706 
z
" style="fill:#d65f5f;"/>
   </g>
   <g id="patch_111">
    <path clip-path="url(#p59eab6fe12)" d="M 150.103636 630 
L 154.161818 630 
L 154.161818 615.74312 
L 150.103636 615.74312 
z
" style="fill:#b47cc7;"/>
   </g>
   <g id="patch_112">
    <path clip-path="url(#p59eab6fe12)" d="M 205.903636 630 
L 209.961818 630 
L 209.961818 608.2768 
L 205.903636 608.2768 
z
" style="fill:#b47cc7;"/>
   </g>
   <g id="patch_113">
    <path clip-path="url(#p59eab6fe12)" d="M 261.703636 630 
L 265.761818 630 
L 265.761818 480.739532 
L 261.703636 480.739532 
z
" style="fill:#b47cc7;"/>
   </g>
   <g id="patch_114">
    <path clip-path="url(#p59eab6fe12)" d="M 317.503636 630 
L 321.561818 630 
L 321.561818 395.989385 
L 317.503636 395.989385 
z
" style="fill:#b47cc7;"/>
   </g>
   <g id="patch_115">
    <path clip-path="url(#p59eab6fe12)" d="M 373.303636 630 
L 377.361818 630 
L 377.361818 212.693706 
L 373.303636 212.693706 
z
" style="fill:#b47cc7;"/>
   </g>
   <g id="patch_116">
    <path clip-path="url(#p59eab6fe12)" d="M 429.103636 630 
L 433.161818 630 
L 433.161818 134.981349 
L 429.103636 134.981349 
z
" style="fill:#b47cc7;"/>
   </g>
   <g id="patch_117">
    <path clip-path="url(#p59eab6fe12)" d="M 484.903636 630 
L 488.961818 630 
L 488.961818 617.275941 
L 484.903636 617.275941 
z
" style="fill:#b47cc7;"/>
   </g>
   <g id="patch_118">
    <path clip-path="url(#p59eab6fe12)" d="M 540.703636 630 
L 544.761818 630 
L 544.761818 610.73261 
L 540.703636 610.73261 
z
" style="fill:#b47cc7;"/>
   </g>
   <g id="patch_119">
    <path clip-path="url(#p59eab6fe12)" d="M 596.503636 630 
L 600.561818 630 
L 600.561818 519.373204 
L 596.503636 519.373204 
z
" style="fill:#b47cc7;"/>
   </g>
   <g id="patch_120">
    <path clip-path="url(#p59eab6fe12)" d="M 652.303636 630 
L 656.361818 630 
L 656.361818 363.882562 
L 652.303636 363.882562 
z
" style="fill:#b47cc7;"/>
   </g>
   <g id="patch_121">
    <path clip-path="url(#p59eab6fe12)" d="M 708.103636 630 
L 712.161818 630 
L 712.161818 121.433192 
L 708.103636 121.433192 
z
" style="fill:#b47cc7;"/>
   </g>
   <g id="patch_122">
    <path clip-path="url(#p59eab6fe12)" d="M 763.903636 630 
L 767.961818 630 
L 767.961818 119.059793 
L 763.903636 119.059793 
z
" style="fill:#b47cc7;"/>
   </g>
   <g id="patch_123">
    <path clip-path="url(#p59eab6fe12)" d="M 154.161818 630 
L 158.22 630 
L 158.22 612.545623 
L 154.161818 612.545623 
z
" style="fill:#c4ad66;"/>
   </g>
   <g id="patch_124">
    <path clip-path="url(#p59eab6fe12)" d="M 209.961818 630 
L 214.02 630 
L 214.02 607.831788 
L 209.961818 607.831788 
z
" style="fill:#c4ad66;"/>
   </g>
   <g id="patch_125">
    <path clip-path="url(#p59eab6fe12)" d="M 265.761818 630 
L 269.82 630 
L 269.82 455.274931 
L 265.761818 455.274931 
z
" style="fill:#c4ad66;"/>
   </g>
   <g id="patch_126">
    <path clip-path="url(#p59eab6fe12)" d="M 321.561818 630 
L 325.62 630 
L 325.62 397.522206 
L 321.561818 397.522206 
z
" style="fill:#c4ad66;"/>
   </g>
   <g id="patch_127">
    <path clip-path="url(#p59eab6fe12)" d="M 377.361818 630 
L 381.42 630 
L 381.42 277.945715 
L 377.361818 277.945715 
z
" style="fill:#c4ad66;"/>
   </g>
   <g id="patch_128">
    <path clip-path="url(#p59eab6fe12)" d="M 433.161818 630 
L 437.22 630 
L 437.22 189.586023 
L 433.161818 189.586023 
z
" style="fill:#c4ad66;"/>
   </g>
   <g id="patch_129">
    <path clip-path="url(#p59eab6fe12)" d="M 488.961818 630 
L 493.02 630 
L 493.02 619.682304 
L 488.961818 619.682304 
z
" style="fill:#c4ad66;"/>
   </g>
   <g id="patch_130">
    <path clip-path="url(#p59eab6fe12)" d="M 544.761818 630 
L 548.82 630 
L 548.82 612.150057 
L 544.761818 612.150057 
z
" style="fill:#c4ad66;"/>
   </g>
   <g id="patch_131">
    <path clip-path="url(#p59eab6fe12)" d="M 600.561818 630 
L 604.62 630 
L 604.62 536.217749 
L 600.561818 536.217749 
z
" style="fill:#c4ad66;"/>
   </g>
   <g id="patch_132">
    <path clip-path="url(#p59eab6fe12)" d="M 656.361818 630 
L 660.42 630 
L 660.42 373.095967 
L 656.361818 373.095967 
z
" style="fill:#c4ad66;"/>
   </g>
   <g id="patch_133">
    <path clip-path="url(#p59eab6fe12)" d="M 712.161818 630 
L 716.22 630 
L 716.22 145.397936 
L 712.161818 145.397936 
z
" style="fill:#c4ad66;"/>
   </g>
   <g id="patch_134">
    <path clip-path="url(#p59eab6fe12)" d="M 767.961818 630 
L 772.02 630 
L 772.02 112.285714 
L 767.961818 112.285714 
z
" style="fill:#c4ad66;"/>
   </g>
   <g id="line2d_27">
    <path clip-path="url(#p59eab6fe12)" d="M 0 0 
" style="fill:none;stroke:#424242;stroke-linecap:round;stroke-width:3.15;"/>
   </g>
   <g id="line2d_28">
    <path clip-path="url(#p59eab6fe12)" d="M 0 0 
" style="fill:none;stroke:#424242;stroke-linecap:round;stroke-width:3.15;"/>
   </g>
   <g id="line2d_29">
    <path clip-path="url(#p59eab6fe12)" d="M 0 0 
" style="fill:none;stroke:#424242;stroke-linecap:round;stroke-width:3.15;"/>
   </g>
   <g id="line2d_30">
    <path clip-path="url(#p59eab6fe12)" d="M 0 0 
" style="fill:none;stroke:#424242;stroke-linecap:round;stroke-width:3.15;"/>
   </g>
   <g id="line2d_31">
    <path clip-path="url(#p59eab6fe12)" d="M 0 0 
" style="fill:none;stroke:#424242;stroke-linecap:round;stroke-width:3.15;"/>
   </g>
   <g id="line2d_32">
    <path clip-path="url(#p59eab6fe12)" d="M 0 0 
" style="fill:none;stroke:#424242;stroke-linecap:round;stroke-width:3.15;"/>
   </g>
   <g id="line2d_33">
    <path clip-path="url(#p59eab6fe12)" d="M 0 0 
" style="fill:none;stroke:#424242;stroke-linecap:round;stroke-width:3.15;"/>
   </g>
   <g id="line2d_34">
    <path clip-path="url(#p59eab6fe12)" d="M 0 0 
" style="fill:none;stroke:#424242;stroke-linecap:round;stroke-width:3.15;"/>
   </g>
   <g id="line2d_35">
    <path clip-path="url(#p59eab6fe12)" d="M 0 0 
" style="fill:none;stroke:#424242;stroke-linecap:round;stroke-width:3.15;"/>
   </g>
   <g id="line2d_36">
    <path clip-path="url(#p59eab6fe12)" d="M 0 0 
" style="fill:none;stroke:#424242;stroke-linecap:round;stroke-width:3.15;"/>
   </g>
   <g id="line2d_37">
    <path clip-path="url(#p59eab6fe12)" d="M 0 0 
" style="fill:none;stroke:#424242;stroke-linecap:round;stroke-width:3.15;"/>
   </g>
   <g id="line2d_38">
    <path clip-path="url(#p59eab6fe12)" d="M 0 0 
" style="fill:none;stroke:#424242;stroke-linecap:round;stroke-width:3.15;"/>
   </g>
   <g id="line2d_39">
    <path clip-path="url(#p59eab6fe12)" d="M 0 0 
" style="fill:none;stroke:#424242;stroke-linecap:round;stroke-width:3.15;"/>
   </g>
   <g id="line2d_40">
    <path clip-path="url(#p59eab6fe12)" d="M 0 0 
" style="fill:none;stroke:#424242;stroke-linecap:round;stroke-width:3.15;"/>
   </g>
   <g id="line2d_41">
    <path clip-path="url(#p59eab6fe12)" d="M 0 0 
" style="fill:none;stroke:#424242;stroke-linecap:round;stroke-width:3.15;"/>
   </g>
   <g id="line2d_42">
    <path clip-path="url(#p59eab6fe12)" d="M 0 0 
" style="fill:none;stroke:#424242;stroke-linecap:round;stroke-width:3.15;"/>
   </g>
   <g id="line2d_43">
    <path clip-path="url(#p59eab6fe12)" d="M 0 0 
" style="fill:none;stroke:#424242;stroke-linecap:round;stroke-width:3.15;"/>
   </g>
   <g id="line2d_44">
    <path clip-path="url(#p59eab6fe12)" d="M 0 0 
" style="fill:none;stroke:#424242;stroke-linecap:round;stroke-width:3.15;"/>
   </g>
   <g id="line2d_45">
    <path clip-path="url(#p59eab6fe12)" d="M 0 0 
" style="fill:none;stroke:#424242;stroke-linecap:round;stroke-width:3.15;"/>
   </g>
   <g id="line2d_46">
    <path clip-path="url(#p59eab6fe12)" d="M 0 0 
" style="fill:none;stroke:#424242;stroke-linecap:round;stroke-width:3.15;"/>
   </g>
   <g id="line2d_47">
    <path clip-path="url(#p59eab6fe12)" d="M 0 0 
" style="fill:none;stroke:#424242;stroke-linecap:round;stroke-width:3.15;"/>
   </g>
   <g id="line2d_48">
    <path clip-path="url(#p59eab6fe12)" d="M 0 0 
" style="fill:none;stroke:#424242;stroke-linecap:round;stroke-width:3.15;"/>
   </g>
   <g id="line2d_49">
    <path clip-path="url(#p59eab6fe12)" d="M 0 0 
" style="fill:none;stroke:#424242;stroke-linecap:round;stroke-width:3.15;"/>
   </g>
   <g id="line2d_50">
    <path clip-path="url(#p59eab6fe12)" d="M 0 0 
" style="fill:none;stroke:#424242;stroke-linecap:round;stroke-width:3.15;"/>
   </g>
   <g id="line2d_51">
    <path clip-path="url(#p59eab6fe12)" d="M 0 0 
" style="fill:none;stroke:#424242;stroke-linecap:round;stroke-width:3.15;"/>
   </g>
   <g id="line2d_52">
    <path clip-path="url(#p59eab6fe12)" d="M 0 0 
" style="fill:none;stroke:#424242;stroke-linecap:round;stroke-width:3.15;"/>
   </g>
   <g id="line2d_53">
    <path clip-path="url(#p59eab6fe12)" d="M 0 0 
" style="fill:none;stroke:#424242;stroke-linecap:round;stroke-width:3.15;"/>
   </g>
   <g id="line2d_54">
    <path clip-path="url(#p59eab6fe12)" d="M 0 0 
" style="fill:none;stroke:#424242;stroke-linecap:round;stroke-width:3.15;"/>
   </g>
   <g id="line2d_55">
    <path clip-path="url(#p59eab6fe12)" d="M 0 0 
" style="fill:none;stroke:#424242;stroke-linecap:round;stroke-width:3.15;"/>
   </g>
   <g id="line2d_56">
    <path clip-path="url(#p59eab6fe12)" d="M 0 0 
" style="fill:none;stroke:#424242;stroke-linecap:round;stroke-width:3.15;"/>
   </g>
   <g id="line2d_57">
    <path clip-path="url(#p59eab6fe12)" d="M 0 0 
" style="fill:none;stroke:#424242;stroke-linecap:round;stroke-width:3.15;"/>
   </g>
   <g id="line2d_58">
    <path clip-path="url(#p59eab6fe12)" d="M 0 0 
" style="fill:none;stroke:#424242;stroke-linecap:round;stroke-width:3.15;"/>
   </g>
   <g id="line2d_59">
    <path clip-path="url(#p59eab6fe12)" d="M 0 0 
" style="fill:none;stroke:#424242;stroke-linecap:round;stroke-width:3.15;"/>
   </g>
   <g id="line2d_60">
    <path clip-path="url(#p59eab6fe12)" d="M 0 0 
" style="fill:none;stroke:#424242;stroke-linecap:round;stroke-width:3.15;"/>
   </g>
   <g id="line2d_61">
    <path clip-path="url(#p59eab6fe12)" d="M 0 0 
" style="fill:none;stroke:#424242;stroke-linecap:round;stroke-width:3.15;"/>
   </g>
   <g id="line2d_62">
    <path clip-path="url(#p59eab6fe12)" d="M 0 0 
" style="fill:none;stroke:#424242;stroke-linecap:round;stroke-width:3.15;"/>
   </g>
   <g id="line2d_63">
    <path clip-path="url(#p59eab6fe12)" d="M 0 0 
" style="fill:none;stroke:#424242;stroke-linecap:round;stroke-width:3.15;"/>
   </g>
   <g id="line2d_64">
    <path clip-path="url(#p59eab6fe12)" d="M 0 0 
" style="fill:none;stroke:#424242;stroke-linecap:round;stroke-width:3.15;"/>
   </g>
   <g id="line2d_65">
    <path clip-path="url(#p59eab6fe12)" d="M 0 0 
" style="fill:none;stroke:#424242;stroke-linecap:round;stroke-width:3.15;"/>
   </g>
   <g id="line2d_66">
    <path clip-path="url(#p59eab6fe12)" d="M 0 0 
" style="fill:none;stroke:#424242;stroke-linecap:round;stroke-width:3.15;"/>
   </g>
   <g id="line2d_67">
    <path clip-path="url(#p59eab6fe12)" d="M 0 0 
" style="fill:none;stroke:#424242;stroke-linecap:round;stroke-width:3.15;"/>
   </g>
   <g id="line2d_68">
    <path clip-path="url(#p59eab6fe12)" d="M 0 0 
" style="fill:none;stroke:#424242;stroke-linecap:round;stroke-width:3.15;"/>
   </g>
   <g id="line2d_69">
    <path clip-path="url(#p59eab6fe12)" d="M 0 0 
" style="fill:none;stroke:#424242;stroke-linecap:round;stroke-width:3.15;"/>
   </g>
   <g id="line2d_70">
    <path clip-path="url(#p59eab6fe12)" d="M 0 0 
" style="fill:none;stroke:#424242;stroke-linecap:round;stroke-width:3.15;"/>
   </g>
   <g id="line2d_71">
    <path clip-path="url(#p59eab6fe12)" d="M 0 0 
" style="fill:none;stroke:#424242;stroke-linecap:round;stroke-width:3.15;"/>
   </g>
   <g id="line2d_72">
    <path clip-path="url(#p59eab6fe12)" d="M 0 0 
" style="fill:none;stroke:#424242;stroke-linecap:round;stroke-width:3.15;"/>
   </g>
   <g id="line2d_73">
    <path clip-path="url(#p59eab6fe12)" d="M 0 0 
" style="fill:none;stroke:#424242;stroke-linecap:round;stroke-width:3.15;"/>
   </g>
   <g id="line2d_74">
    <path clip-path="url(#p59eab6fe12)" d="M 0 0 
" style="fill:none;stroke:#424242;stroke-linecap:round;stroke-width:3.15;"/>
   </g>
   <g id="line2d_75">
    <path clip-path="url(#p59eab6fe12)" d="M 0 0 
" style="fill:none;stroke:#424242;stroke-linecap:round;stroke-width:3.15;"/>
   </g>
   <g id="line2d_76">
    <path clip-path="url(#p59eab6fe12)" d="M 0 0 
" style="fill:none;stroke:#424242;stroke-linecap:round;stroke-width:3.15;"/>
   </g>
   <g id="line2d_77">
    <path clip-path="url(#p59eab6fe12)" d="M 0 0 
" style="fill:none;stroke:#424242;stroke-linecap:round;stroke-width:3.15;"/>
   </g>
   <g id="line2d_78">
    <path clip-path="url(#p59eab6fe12)" d="M 0 0 
" style="fill:none;stroke:#424242;stroke-linecap:round;stroke-width:3.15;"/>
   </g>
   <g id="line2d_79">
    <path clip-path="url(#p59eab6fe12)" d="M 0 0 
" style="fill:none;stroke:#424242;stroke-linecap:round;stroke-width:3.15;"/>
   </g>
   <g id="line2d_80">
    <path clip-path="url(#p59eab6fe12)" d="M 0 0 
" style="fill:none;stroke:#424242;stroke-linecap:round;stroke-width:3.15;"/>
   </g>
   <g id="line2d_81">
    <path clip-path="url(#p59eab6fe12)" d="M 0 0 
" style="fill:none;stroke:#424242;stroke-linecap:round;stroke-width:3.15;"/>
   </g>
   <g id="line2d_82">
    <path clip-path="url(#p59eab6fe12)" d="M 0 0 
" style="fill:none;stroke:#424242;stroke-linecap:round;stroke-width:3.15;"/>
   </g>
   <g id="line2d_83">
    <path clip-path="url(#p59eab6fe12)" d="M 0 0 
" style="fill:none;stroke:#424242;stroke-linecap:round;stroke-width:3.15;"/>
   </g>
   <g id="line2d_84">
    <path clip-path="url(#p59eab6fe12)" d="M 0 0 
" style="fill:none;stroke:#424242;stroke-linecap:round;stroke-width:3.15;"/>
   </g>
   <g id="line2d_85">
    <path clip-path="url(#p59eab6fe12)" d="M 0 0 
" style="fill:none;stroke:#424242;stroke-linecap:round;stroke-width:3.15;"/>
   </g>
   <g id="line2d_86">
    <path clip-path="url(#p59eab6fe12)" d="M 0 0 
" style="fill:none;stroke:#424242;stroke-linecap:round;stroke-width:3.15;"/>
   </g>
   <g id="line2d_87">
    <path clip-path="url(#p59eab6fe12)" d="M 0 0 
" style="fill:none;stroke:#424242;stroke-linecap:round;stroke-width:3.15;"/>
   </g>
   <g id="line2d_88">
    <path clip-path="url(#p59eab6fe12)" d="M 0 0 
" style="fill:none;stroke:#424242;stroke-linecap:round;stroke-width:3.15;"/>
   </g>
   <g id="line2d_89">
    <path clip-path="url(#p59eab6fe12)" d="M 0 0 
" style="fill:none;stroke:#424242;stroke-linecap:round;stroke-width:3.15;"/>
   </g>
   <g id="line2d_90">
    <path clip-path="url(#p59eab6fe12)" d="M 0 0 
" style="fill:none;stroke:#424242;stroke-linecap:round;stroke-width:3.15;"/>
   </g>
   <g id="line2d_91">
    <path clip-path="url(#p59eab6fe12)" d="M 0 0 
" style="fill:none;stroke:#424242;stroke-linecap:round;stroke-width:3.15;"/>
   </g>
   <g id="line2d_92">
    <path clip-path="url(#p59eab6fe12)" d="M 0 0 
" style="fill:none;stroke:#424242;stroke-linecap:round;stroke-width:3.15;"/>
   </g>
   <g id="line2d_93">
    <path clip-path="url(#p59eab6fe12)" d="M 0 0 
" style="fill:none;stroke:#424242;stroke-linecap:round;stroke-width:3.15;"/>
   </g>
   <g id="line2d_94">
    <path clip-path="url(#p59eab6fe12)" d="M 0 0 
" style="fill:none;stroke:#424242;stroke-linecap:round;stroke-width:3.15;"/>
   </g>
   <g id="line2d_95">
    <path clip-path="url(#p59eab6fe12)" d="M 0 0 
" style="fill:none;stroke:#424242;stroke-linecap:round;stroke-width:3.15;"/>
   </g>
   <g id="line2d_96">
    <path clip-path="url(#p59eab6fe12)" d="M 0 0 
" style="fill:none;stroke:#424242;stroke-linecap:round;stroke-width:3.15;"/>
   </g>
   <g id="line2d_97">
    <path clip-path="url(#p59eab6fe12)" d="M 0 0 
" style="fill:none;stroke:#424242;stroke-linecap:round;stroke-width:3.15;"/>
   </g>
   <g id="line2d_98">
    <path clip-path="url(#p59eab6fe12)" d="M 0 0 
" style="fill:none;stroke:#424242;stroke-linecap:round;stroke-width:3.15;"/>
   </g>
   <g id="line2d_99">
    <path clip-path="url(#p59eab6fe12)" d="M 0 0 
" style="fill:none;stroke:#424242;stroke-linecap:round;stroke-width:3.15;"/>
   </g>
   <g id="line2d_100">
    <path clip-path="url(#p59eab6fe12)" d="M 0 0 
" style="fill:none;stroke:#424242;stroke-linecap:round;stroke-width:3.15;"/>
   </g>
   <g id="line2d_101">
    <path clip-path="url(#p59eab6fe12)" d="M 0 0 
" style="fill:none;stroke:#424242;stroke-linecap:round;stroke-width:3.15;"/>
   </g>
   <g id="line2d_102">
    <path clip-path="url(#p59eab6fe12)" d="M 0 0 
" style="fill:none;stroke:#424242;stroke-linecap:round;stroke-width:3.15;"/>
   </g>
   <g id="line2d_103">
    <path clip-path="url(#p59eab6fe12)" d="M 0 0 
" style="fill:none;stroke:#424242;stroke-linecap:round;stroke-width:3.15;"/>
   </g>
   <g id="line2d_104">
    <path clip-path="url(#p59eab6fe12)" d="M 0 0 
" style="fill:none;stroke:#424242;stroke-linecap:round;stroke-width:3.15;"/>
   </g>
   <g id="line2d_105">
    <path clip-path="url(#p59eab6fe12)" d="M 0 0 
" style="fill:none;stroke:#424242;stroke-linecap:round;stroke-width:3.15;"/>
   </g>
   <g id="line2d_106">
    <path clip-path="url(#p59eab6fe12)" d="M 0 0 
" style="fill:none;stroke:#424242;stroke-linecap:round;stroke-width:3.15;"/>
   </g>
   <g id="line2d_107">
    <path clip-path="url(#p59eab6fe12)" d="M 0 0 
" style="fill:none;stroke:#424242;stroke-linecap:round;stroke-width:3.15;"/>
   </g>
   <g id="line2d_108">
    <path clip-path="url(#p59eab6fe12)" d="M 0 0 
" style="fill:none;stroke:#424242;stroke-linecap:round;stroke-width:3.15;"/>
   </g>
   <g id="line2d_109">
    <path clip-path="url(#p59eab6fe12)" d="M 0 0 
" style="fill:none;stroke:#424242;stroke-linecap:round;stroke-width:3.15;"/>
   </g>
   <g id="line2d_110">
    <path clip-path="url(#p59eab6fe12)" d="M 0 0 
" style="fill:none;stroke:#424242;stroke-linecap:round;stroke-width:3.15;"/>
   </g>
   <g id="line2d_111">
    <path clip-path="url(#p59eab6fe12)" d="M 0 0 
" style="fill:none;stroke:#424242;stroke-linecap:round;stroke-width:3.15;"/>
   </g>
   <g id="line2d_112">
    <path clip-path="url(#p59eab6fe12)" d="M 0 0 
" style="fill:none;stroke:#424242;stroke-linecap:round;stroke-width:3.15;"/>
   </g>
   <g id="line2d_113">
    <path clip-path="url(#p59eab6fe12)" d="M 0 0 
" style="fill:none;stroke:#424242;stroke-linecap:round;stroke-width:3.15;"/>
   </g>
   <g id="line2d_114">
    <path clip-path="url(#p59eab6fe12)" d="M 0 0 
" style="fill:none;stroke:#424242;stroke-linecap:round;stroke-width:3.15;"/>
   </g>
   <g id="line2d_115">
    <path clip-path="url(#p59eab6fe12)" d="M 0 0 
" style="fill:none;stroke:#424242;stroke-linecap:round;stroke-width:3.15;"/>
   </g>
   <g id="line2d_116">
    <path clip-path="url(#p59eab6fe12)" d="M 0 0 
" style="fill:none;stroke:#424242;stroke-linecap:round;stroke-width:3.15;"/>
   </g>
   <g id="line2d_117">
    <path clip-path="url(#p59eab6fe12)" d="M 0 0 
" style="fill:none;stroke:#424242;stroke-linecap:round;stroke-width:3.15;"/>
   </g>
   <g id="line2d_118">
    <path clip-path="url(#p59eab6fe12)" d="M 0 0 
" style="fill:none;stroke:#424242;stroke-linecap:round;stroke-width:3.15;"/>
   </g>
   <g id="line2d_119">
    <path clip-path="url(#p59eab6fe12)" d="M 0 0 
" style="fill:none;stroke:#424242;stroke-linecap:round;stroke-width:3.15;"/>
   </g>
   <g id="line2d_120">
    <path clip-path="url(#p59eab6fe12)" d="M 0 0 
" style="fill:none;stroke:#424242;stroke-linecap:round;stroke-width:3.15;"/>
   </g>
   <g id="line2d_121">
    <path clip-path="url(#p59eab6fe12)" d="M 0 0 
" style="fill:none;stroke:#424242;stroke-linecap:round;stroke-width:3.15;"/>
   </g>
   <g id="line2d_122">
    <path clip-path="url(#p59eab6fe12)" d="M 0 0 
" style="fill:none;stroke:#424242;stroke-linecap:round;stroke-width:3.15;"/>
   </g>
   <g id="line2d_123">
    <path clip-path="url(#p59eab6fe12)" d="M 0 0 
" style="fill:none;stroke:#424242;stroke-linecap:round;stroke-width:3.15;"/>
   </g>
   <g id="line2d_124">
    <path clip-path="url(#p59eab6fe12)" d="M 0 0 
" style="fill:none;stroke:#424242;stroke-linecap:round;stroke-width:3.15;"/>
   </g>
   <g id="line2d_125">
    <path clip-path="url(#p59eab6fe12)" d="M 0 0 
" style="fill:none;stroke:#424242;stroke-linecap:round;stroke-width:3.15;"/>
   </g>
   <g id="line2d_126">
    <path clip-path="url(#p59eab6fe12)" d="M 0 0 
" style="fill:none;stroke:#424242;stroke-linecap:round;stroke-width:3.15;"/>
   </g>
   <g id="line2d_127">
    <path clip-path="url(#p59eab6fe12)" d="M 0 0 
" style="fill:none;stroke:#424242;stroke-linecap:round;stroke-width:3.15;"/>
   </g>
   <g id="line2d_128">
    <path clip-path="url(#p59eab6fe12)" d="M 0 0 
" style="fill:none;stroke:#424242;stroke-linecap:round;stroke-width:3.15;"/>
   </g>
   <g id="line2d_129">
    <path clip-path="url(#p59eab6fe12)" d="M 0 0 
" style="fill:none;stroke:#424242;stroke-linecap:round;stroke-width:3.15;"/>
   </g>
   <g id="line2d_130">
    <path clip-path="url(#p59eab6fe12)" d="M 0 0 
" style="fill:none;stroke:#424242;stroke-linecap:round;stroke-width:3.15;"/>
   </g>
   <g id="line2d_131">
    <path clip-path="url(#p59eab6fe12)" d="M 0 0 
" style="fill:none;stroke:#424242;stroke-linecap:round;stroke-width:3.15;"/>
   </g>
   <g id="line2d_132">
    <path clip-path="url(#p59eab6fe12)" d="M 0 0 
" style="fill:none;stroke:#424242;stroke-linecap:round;stroke-width:3.15;"/>
   </g>
   <g id="line2d_133">
    <path clip-path="url(#p59eab6fe12)" d="M 0 0 
" style="fill:none;stroke:#424242;stroke-linecap:round;stroke-width:3.15;"/>
   </g>
   <g id="line2d_134">
    <path clip-path="url(#p59eab6fe12)" d="M 0 0 
" style="fill:none;stroke:#424242;stroke-linecap:round;stroke-width:3.15;"/>
   </g>
   <g id="line2d_135">
    <path clip-path="url(#p59eab6fe12)" d="M 0 0 
" style="fill:none;stroke:#424242;stroke-linecap:round;stroke-width:3.15;"/>
   </g>
   <g id="line2d_136">
    <path clip-path="url(#p59eab6fe12)" d="M 0 0 
" style="fill:none;stroke:#424242;stroke-linecap:round;stroke-width:3.15;"/>
   </g>
   <g id="line2d_137">
    <path clip-path="url(#p59eab6fe12)" d="M 0 0 
" style="fill:none;stroke:#424242;stroke-linecap:round;stroke-width:3.15;"/>
   </g>
   <g id="line2d_138">
    <path clip-path="url(#p59eab6fe12)" d="M 0 0 
" style="fill:none;stroke:#424242;stroke-linecap:round;stroke-width:3.15;"/>
   </g>
   <g id="line2d_139">
    <path clip-path="url(#p59eab6fe12)" d="M 0 0 
" style="fill:none;stroke:#424242;stroke-linecap:round;stroke-width:3.15;"/>
   </g>
   <g id="line2d_140">
    <path clip-path="url(#p59eab6fe12)" d="M 0 0 
" style="fill:none;stroke:#424242;stroke-linecap:round;stroke-width:3.15;"/>
   </g>
   <g id="line2d_141">
    <path clip-path="url(#p59eab6fe12)" d="M 0 0 
" style="fill:none;stroke:#424242;stroke-linecap:round;stroke-width:3.15;"/>
   </g>
   <g id="line2d_142">
    <path clip-path="url(#p59eab6fe12)" d="M 0 0 
" style="fill:none;stroke:#424242;stroke-linecap:round;stroke-width:3.15;"/>
   </g>
   <g id="line2d_143">
    <path clip-path="url(#p59eab6fe12)" d="M 0 0 
" style="fill:none;stroke:#424242;stroke-linecap:round;stroke-width:3.15;"/>
   </g>
   <g id="line2d_144">
    <path clip-path="url(#p59eab6fe12)" d="M 0 0 
" style="fill:none;stroke:#424242;stroke-linecap:round;stroke-width:3.15;"/>
   </g>
   <g id="line2d_145">
    <path clip-path="url(#p59eab6fe12)" d="M 0 0 
" style="fill:none;stroke:#424242;stroke-linecap:round;stroke-width:3.15;"/>
   </g>
   <g id="line2d_146">
    <path clip-path="url(#p59eab6fe12)" d="M 0 0 
" style="fill:none;stroke:#424242;stroke-linecap:round;stroke-width:3.15;"/>
   </g>
   <g id="line2d_147">
    <path clip-path="url(#p59eab6fe12)" d="M 0 0 
" style="fill:none;stroke:#424242;stroke-linecap:round;stroke-width:3.15;"/>
   </g>
   <g id="line2d_148">
    <path clip-path="url(#p59eab6fe12)" d="M 0 0 
" style="fill:none;stroke:#424242;stroke-linecap:round;stroke-width:3.15;"/>
   </g>
   <g id="line2d_149">
    <path clip-path="url(#p59eab6fe12)" d="M 0 0 
" style="fill:none;stroke:#424242;stroke-linecap:round;stroke-width:3.15;"/>
   </g>
   <g id="line2d_150">
    <path clip-path="url(#p59eab6fe12)" d="M 0 0 
" style="fill:none;stroke:#424242;stroke-linecap:round;stroke-width:3.15;"/>
   </g>
   <g id="line2d_151">
    <path clip-path="url(#p59eab6fe12)" d="M 0 0 
" style="fill:none;stroke:#424242;stroke-linecap:round;stroke-width:3.15;"/>
   </g>
   <g id="line2d_152">
    <path clip-path="url(#p59eab6fe12)" d="M 0 0 
" style="fill:none;stroke:#424242;stroke-linecap:round;stroke-width:3.15;"/>
   </g>
   <g id="line2d_153">
    <path clip-path="url(#p59eab6fe12)" d="M 0 0 
" style="fill:none;stroke:#424242;stroke-linecap:round;stroke-width:3.15;"/>
   </g>
   <g id="line2d_154">
    <path clip-path="url(#p59eab6fe12)" d="M 0 0 
" style="fill:none;stroke:#424242;stroke-linecap:round;stroke-width:3.15;"/>
   </g>
   <g id="line2d_155">
    <path clip-path="url(#p59eab6fe12)" d="M 0 0 
" style="fill:none;stroke:#424242;stroke-linecap:round;stroke-width:3.15;"/>
   </g>
   <g id="line2d_156">
    <path clip-path="url(#p59eab6fe12)" d="M 0 0 
" style="fill:none;stroke:#424242;stroke-linecap:round;stroke-width:3.15;"/>
   </g>
   <g id="line2d_157">
    <path clip-path="url(#p59eab6fe12)" d="M 0 0 
" style="fill:none;stroke:#424242;stroke-linecap:round;stroke-width:3.15;"/>
   </g>
   <g id="line2d_158">
    <path clip-path="url(#p59eab6fe12)" d="M 0 0 
" style="fill:none;stroke:#424242;stroke-linecap:round;stroke-width:3.15;"/>
   </g>
   <g id="patch_135">
    <path d="M 108 630 
L 108 86.4 
" style="fill:none;"/>
   </g>
   <g id="patch_136">
    <path d="M 777.6 630 
L 777.6 86.4 
" style="fill:none;"/>
   </g>
   <g id="patch_137">
    <path d="M 108 630 
L 777.6 630 
" style="fill:none;"/>
   </g>
   <g id="patch_138">
    <path d="M 108 86.4 
L 777.6 86.4 
" style="fill:none;"/>
   </g>
   <g id="legend_1">
    <g id="text_22">
     <!-- core -->
     <defs>
      <path d="M 30.609375 48.390625 
Q 23.390625 48.390625 19.1875 42.75 
Q 14.984375 37.109375 14.984375 27.296875 
Q 14.984375 17.484375 19.15625 11.84375 
Q 23.34375 6.203125 30.609375 6.203125 
Q 37.796875 6.203125 41.984375 11.859375 
Q 46.1875 17.53125 46.1875 27.296875 
Q 46.1875 37.015625 41.984375 42.703125 
Q 37.796875 48.390625 30.609375 48.390625 
z
M 30.609375 56 
Q 42.328125 56 49.015625 48.375 
Q 55.71875 40.765625 55.71875 27.296875 
Q 55.71875 13.875 49.015625 6.21875 
Q 42.328125 -1.421875 30.609375 -1.421875 
Q 18.84375 -1.421875 12.171875 6.21875 
Q 5.515625 13.875 5.515625 27.296875 
Q 5.515625 40.765625 12.171875 48.375 
Q 18.84375 56 30.609375 56 
z
" id="DejaVuSans-6f"/>
      <path d="M 41.109375 46.296875 
Q 39.59375 47.171875 37.8125 47.578125 
Q 36.03125 48 33.890625 48 
Q 26.265625 48 22.1875 43.046875 
Q 18.109375 38.09375 18.109375 28.8125 
L 18.109375 0 
L 9.078125 0 
L 9.078125 54.6875 
L 18.109375 54.6875 
L 18.109375 46.1875 
Q 20.953125 51.171875 25.484375 53.578125 
Q 30.03125 56 36.53125 56 
Q 37.453125 56 38.578125 55.875 
Q 39.703125 55.765625 41.0625 55.515625 
z
" id="DejaVuSans-72"/>
     </defs>
     <g style="fill:#262626;" transform="translate(130.961372 105.725447)scale(0.1122 -0.1122)">
      <use xlink:href="#DejaVuSans-63"/>
      <use x="54.980469" xlink:href="#DejaVuSans-6f"/>
      <use x="116.162109" xlink:href="#DejaVuSans-72"/>
      <use x="157.244141" xlink:href="#DejaVuSans-65"/>
     </g>
    </g>
    <g id="patch_139">
     <path d="M 118.8 123.176981 
L 142.8 123.176981 
L 142.8 114.776981 
L 118.8 114.776981 
z
" style="fill:#4878cf;"/>
    </g>
    <g id="text_23">
     <!-- 2 -->
     <g style="fill:#262626;" transform="translate(152.4 123.176981)scale(0.12 -0.12)">
      <use xlink:href="#DejaVuSans-32"/>
     </g>
    </g>
    <g id="patch_140">
     <path d="M 118.8 140.790731 
L 142.8 140.790731 
L 142.8 132.390731 
L 118.8 132.390731 
z
" style="fill:#6acc65;"/>
    </g>
    <g id="text_24">
     <!-- 4 -->
     <defs>
      <path d="M 37.796875 64.3125 
L 12.890625 25.390625 
L 37.796875 25.390625 
z
M 35.203125 72.90625 
L 47.609375 72.90625 
L 47.609375 25.390625 
L 58.015625 25.390625 
L 58.015625 17.1875 
L 47.609375 17.1875 
L 47.609375 0 
L 37.796875 0 
L 37.796875 17.1875 
L 4.890625 17.1875 
L 4.890625 26.703125 
z
" id="DejaVuSans-34"/>
     </defs>
     <g style="fill:#262626;" transform="translate(152.4 140.790731)scale(0.12 -0.12)">
      <use xlink:href="#DejaVuSans-34"/>
     </g>
    </g>
    <g id="patch_141">
     <path d="M 118.8 158.404481 
L 142.8 158.404481 
L 142.8 150.004481 
L 118.8 150.004481 
z
" style="fill:#d65f5f;"/>
    </g>
    <g id="text_25">
     <!-- 8 -->
     <defs>
      <path d="M 31.78125 34.625 
Q 24.75 34.625 20.71875 30.859375 
Q 16.703125 27.09375 16.703125 20.515625 
Q 16.703125 13.921875 20.71875 10.15625 
Q 24.75 6.390625 31.78125 6.390625 
Q 38.8125 6.390625 42.859375 10.171875 
Q 46.921875 13.96875 46.921875 20.515625 
Q 46.921875 27.09375 42.890625 30.859375 
Q 38.875 34.625 31.78125 34.625 
z
M 21.921875 38.8125 
Q 15.578125 40.375 12.03125 44.71875 
Q 8.5 49.078125 8.5 55.328125 
Q 8.5 64.0625 14.71875 69.140625 
Q 20.953125 74.21875 31.78125 74.21875 
Q 42.671875 74.21875 48.875 69.140625 
Q 55.078125 64.0625 55.078125 55.328125 
Q 55.078125 49.078125 51.53125 44.71875 
Q 48 40.375 41.703125 38.8125 
Q 48.828125 37.15625 52.796875 32.3125 
Q 56.78125 27.484375 56.78125 20.515625 
Q 56.78125 9.90625 50.3125 4.234375 
Q 43.84375 -1.421875 31.78125 -1.421875 
Q 19.734375 -1.421875 13.25 4.234375 
Q 6.78125 9.90625 6.78125 20.515625 
Q 6.78125 27.484375 10.78125 32.3125 
Q 14.796875 37.15625 21.921875 38.8125 
z
M 18.3125 54.390625 
Q 18.3125 48.734375 21.84375 45.5625 
Q 25.390625 42.390625 31.78125 42.390625 
Q 38.140625 42.390625 41.71875 45.5625 
Q 45.3125 48.734375 45.3125 54.390625 
Q 45.3125 60.0625 41.71875 63.234375 
Q 38.140625 66.40625 31.78125 66.40625 
Q 25.390625 66.40625 21.84375 63.234375 
Q 18.3125 60.0625 18.3125 54.390625 
z
" id="DejaVuSans-38"/>
     </defs>
     <g style="fill:#262626;" transform="translate(152.4 158.404481)scale(0.12 -0.12)">
      <use xlink:href="#DejaVuSans-38"/>
     </g>
    </g>
    <g id="patch_142">
     <path d="M 118.8 176.018231 
L 142.8 176.018231 
L 142.8 167.618231 
L 118.8 167.618231 
z
" style="fill:#b47cc7;"/>
    </g>
    <g id="text_26">
     <!-- 12 -->
     <g style="fill:#262626;" transform="translate(152.4 176.018231)scale(0.12 -0.12)">
      <use xlink:href="#DejaVuSans-31"/>
      <use x="63.623047" xlink:href="#DejaVuSans-32"/>
     </g>
    </g>
    <g id="patch_143">
     <path d="M 118.8 193.631981 
L 142.8 193.631981 
L 142.8 185.231981 
L 118.8 185.231981 
z
" style="fill:#c4ad66;"/>
    </g>
    <g id="text_27">
     <!-- 16 -->
     <defs>
      <path d="M 33.015625 40.375 
Q 26.375 40.375 22.484375 35.828125 
Q 18.609375 31.296875 18.609375 23.390625 
Q 18.609375 15.53125 22.484375 10.953125 
Q 26.375 6.390625 33.015625 6.390625 
Q 39.65625 6.390625 43.53125 10.953125 
Q 47.40625 15.53125 47.40625 23.390625 
Q 47.40625 31.296875 43.53125 35.828125 
Q 39.65625 40.375 33.015625 40.375 
z
M 52.59375 71.296875 
L 52.59375 62.3125 
Q 48.875 64.0625 45.09375 64.984375 
Q 41.3125 65.921875 37.59375 65.921875 
Q 27.828125 65.921875 22.671875 59.328125 
Q 17.53125 52.734375 16.796875 39.40625 
Q 19.671875 43.65625 24.015625 45.921875 
Q 28.375 48.1875 33.59375 48.1875 
Q 44.578125 48.1875 50.953125 41.515625 
Q 57.328125 34.859375 57.328125 23.390625 
Q 57.328125 12.15625 50.6875 5.359375 
Q 44.046875 -1.421875 33.015625 -1.421875 
Q 20.359375 -1.421875 13.671875 8.265625 
Q 6.984375 17.96875 6.984375 36.375 
Q 6.984375 53.65625 15.1875 63.9375 
Q 23.390625 74.21875 37.203125 74.21875 
Q 40.921875 74.21875 44.703125 73.484375 
Q 48.484375 72.75 52.59375 71.296875 
z
" id="DejaVuSans-36"/>
     </defs>
     <g style="fill:#262626;" transform="translate(152.4 193.631981)scale(0.12 -0.12)">
      <use xlink:href="#DejaVuSans-31"/>
      <use x="63.623047" xlink:href="#DejaVuSans-36"/>
     </g>
    </g>
    <g id="patch_144">
     <path d="M 118.8 211.245731 
L 142.8 211.245731 
L 142.8 202.845731 
L 118.8 202.845731 
z
" style="fill:#77bedb;"/>
    </g>
    <g id="text_28">
     <!-- 24 -->
     <g style="fill:#262626;" transform="translate(152.4 211.245731)scale(0.12 -0.12)">
      <use xlink:href="#DejaVuSans-32"/>
      <use x="63.623047" xlink:href="#DejaVuSans-34"/>
     </g>
    </g>
    <g id="patch_145">
     <path d="M 118.8 228.859481 
L 142.8 228.859481 
L 142.8 220.459481 
L 118.8 220.459481 
z
" style="fill:#4878cf;"/>
    </g>
    <g id="text_29">
     <!-- 32 -->
     <g style="fill:#262626;" transform="translate(152.4 228.859481)scale(0.12 -0.12)">
      <use xlink:href="#DejaVuSans-33"/>
      <use x="63.623047" xlink:href="#DejaVuSans-32"/>
     </g>
    </g>
    <g id="patch_146">
     <path d="M 118.8 246.473231 
L 142.8 246.473231 
L 142.8 238.073231 
L 118.8 238.073231 
z
" style="fill:#6acc65;"/>
    </g>
    <g id="text_30">
     <!-- 40 -->
     <g style="fill:#262626;" transform="translate(152.4 246.473231)scale(0.12 -0.12)">
      <use xlink:href="#DejaVuSans-34"/>
      <use x="63.623047" xlink:href="#DejaVuSans-30"/>
     </g>
    </g>
    <g id="patch_147">
     <path d="M 118.8 264.086981 
L 142.8 264.086981 
L 142.8 255.686981 
L 118.8 255.686981 
z
" style="fill:#d65f5f;"/>
    </g>
    <g id="text_31">
     <!-- 48 -->
     <g style="fill:#262626;" transform="translate(152.4 264.086981)scale(0.12 -0.12)">
      <use xlink:href="#DejaVuSans-34"/>
      <use x="63.623047" xlink:href="#DejaVuSans-38"/>
     </g>
    </g>
    <g id="patch_148">
     <path d="M 118.8 281.700731 
L 142.8 281.700731 
L 142.8 273.300731 
L 118.8 273.300731 
z
" style="fill:#b47cc7;"/>
    </g>
    <g id="text_32">
     <!-- 56 -->
     <g style="fill:#262626;" transform="translate(152.4 281.700731)scale(0.12 -0.12)">
      <use xlink:href="#DejaVuSans-35"/>
      <use x="63.623047" xlink:href="#DejaVuSans-36"/>
     </g>
    </g>
    <g id="patch_149">
     <path d="M 118.8 299.314481 
L 142.8 299.314481 
L 142.8 290.914481 
L 118.8 290.914481 
z
" style="fill:#c4ad66;"/>
    </g>
    <g id="text_33">
     <!-- 64 -->
     <g style="fill:#262626;" transform="translate(152.4 299.314481)scale(0.12 -0.12)">
      <use xlink:href="#DejaVuSans-36"/>
      <use x="63.623047" xlink:href="#DejaVuSans-34"/>
     </g>
    </g>
   </g>
  </g>
 </g>
 <defs>
  <clipPath id="p59eab6fe12">
   <rect height="543.6" width="669.6" x="108" y="86.4"/>
  </clipPath>
 </defs>
</svg>
